<svg t="1709469456269" class="icon" viewBox="0 0 1024 1024" version="1.1" xmlns="http://www.w3.org/2000/svg" p-id="1504" data-darkreader-inline-fill="" width="128" height="128"><path d="M496.234976 857.115465L196.301459 561.898357c-46.825375-46.092689-72.610593-106.736763-72.610593-170.724995 0-60.644074 23.565671-117.243027 66.346948-159.348923 90.332174-88.901595 240.215533-86.205188 334.048431 6.123452l324.931815 319.822457c33.089563 32.525723 51.291074 75.362258 51.291074 120.668026 0 43.035056-16.739209 83.173138-47.134413 113.087388-63.930927 62.918879-169.937051 61.036-236.116177-4.101403L317.111724 492.210321c-19.298493-19.017084-29.916297-44.071663-29.916297-70.559891-0.025583-25.419898 9.859536-49.155438 27.83899-66.822785 37.524563-36.909558 99.517352-36.039749 138.225878 2.077308l274.976152 270.610736-40.33558 41.009938-274.979222-270.609714c-16.430171-16.208114-42.18776-17.134205-57.552672-2.078331-6.883767 6.769157-10.646456 15.926706-10.646456 25.813871 0 10.9821 4.525051 21.459711 12.72581 29.548931l299.948867 295.217108c43.984682 43.284742 113.704441 45.109294 155.442971 4.099357 19.325099-18.987409 29.942903-44.603781 29.942903-72.130664 0-29.661494-12.134341-57.948691-34.099565-79.6059L483.735316 278.957829c-71.571939-70.417652-185.219075-73.143734-253.363969-6.0948-31.68559 31.149378-49.154415 73.198993-49.154415 118.310333 0 48.454475 19.689395 94.547164 55.419084 129.742687l299.920214 295.159803-40.321254 41.039613z" fill="rgb(46, 49, 124)" p-id="1505" data-darkreader-inline-fill="" style="--darkreader-inline-fill: #35393b;"></path></svg>