<?xml version="1.0" standalone="no"?><!DOCTYPE svg PUBLIC "-//W3C//DTD SVG 1.1//EN" "http://www.w3.org/Graphics/SVG/1.1/DTD/svg11.dtd"><svg t="1709455648008" class="icon" viewBox="0 0 1024 1024" version="1.1" xmlns="http://www.w3.org/2000/svg" p-id="6102" id="mx_n_1709455648009" xmlns:xlink="http://www.w3.org/1999/xlink" width="200" height="200"><path d="M415.16 153.68c-18.96 0-37.92 18.96-33.2 37.92 0 18.96 18.96 37.92 37.92 37.92s37.92-18.96 37.92-37.92c-4.72-23.68-18.96-37.92-42.64-37.92z m0 0"  fill="rgb(46, 49, 124)" p-id="6103"></path><path d="M908.16 400.2c-18.96-75.84-61.64-118.52-118.52-118.52h-52.16V201.08c0-61.64-47.4-113.76-118.52-123.24-66.36-9.48-128-14.2-203.84 0C315.6 96.8 296.64 139.48 296.64 201.08v75.84H244.48c-75.84 4.72-128 47.4-142.2 118.52-18.96 80.6-18.96 132.72 0 208.56s61.64 118.52 128 118.52h42.68v75.84c0 56.88 42.68 99.56 113.76 123.24 37.92 9.48 71.12 14.24 104.28 14.24 33.2 0 66.36-4.76 104.28-14.24 94.8-28.44 113.76-80.6 113.76-123.24v-75.84h75.84c75.84 0 99.56-56.88 118.52-113.76 23.72-61.64 23.72-128 4.76-208.56zM272.92 608.76v66.36H230.28c-42.68 0-66.36-28.44-80.6-80.6-18.96-71.12-18.96-113.76 0-189.6 14.24-66.36 71.12-80.6 99.56-80.6h270.2c14.24 0 23.72-9.48 23.72-23.72 0-14.2-9.48-23.68-23.72-23.68H344.04V201.08c0-42.68 4.76-66.36 75.84-75.84 66.36-9.48 128-9.48 189.6 0 37.92 4.76 75.84 33.2 75.84 75.84v184.88c0 42.68-33.2 75.84-75.84 75.84h-189.6c-80.56 4.76-146.96 71.12-146.96 146.96z m587.84-14.24c-23.72 66.36-37.92 85.32-75.84 85.32h-293.92c-14.24 0-23.72 9.48-23.72 23.68 0 14.24 9.48 23.72 23.72 23.72h170.64v75.84c0 33.2-28.44 61.64-80.6 75.84-61.64 18.96-118.52 18.96-180.12 0-37.92-9.48-80.6-33.2-80.6-75.84v-189.6c0-52.16 47.4-99.56 99.56-99.56h194.36c66.36 0 123.24-56.88 123.24-123.24v-61.6h52.16c23.72 0 56.88 9.48 75.84 80.6 14.24 75.84 14.24 132.72-4.72 184.84z m0 0" fill="#99999D" p-id="6104"></path><path d="M600.04 841.04c18.96 0 37.92-18.96 37.92-37.92s-18.96-37.92-37.92-37.92-37.92 18.96-37.92 37.92 18.96 37.92 37.92 37.92z m0 0" fill="#3A4ED0" p-id="6105"></path></svg>