<svg xmlns="http://www.w3.org/2000/svg" xmlns:xlink="http://www.w3.org/1999/xlink" fill="none" version="1.1" width="600" height="85" viewBox="0 0 600 85"><defs><clipPath id="master_svg0_33_0160"><rect x="0" y="0" width="600" height="85" rx="0"/></clipPath><clipPath id="master_svg1_33_0161"><rect x="13" y="3" width="70" height="78.75787353515625" rx="0"/></clipPath><clipPath id="master_svg2_33_968"><rect x="512" y="0" width="80" height="80" rx="0"/></clipPath></defs><g clip-path="url(#master_svg0_33_0160)"><rect x="0" y="0" width="600" height="85" rx="0" fill="#000000" fill-opacity="0"/><g><path d="M150.008,31.784Q146.296,35.944,143.16,39.528Q140.024,43.111999999999995,137.272,46.344Q134.52,49.576,132.024,52.584Q129.528,55.592,127.16,58.536L144.376,58.536L142.776,65L116.792,65L118.072,59.816Q120.056,57.128,122.328,54.184Q124.6,51.24,127.384,47.88Q130.168,44.52,133.59199999999998,40.552Q137.016,36.584,141.24,31.848L125.24,31.848L126.84,25.384L151.54399999999998,25.384L150.008,31.784ZM164.856,35.048Q165.94400000000002,34.728,167.096,34.504000000000005Q168.248,34.28,169.336,34.28Q174.072,34.28,176.44,36.552Q178.808,38.824,178.808,42.984Q178.808,44.072,178.648,45.352Q178.488,46.632,178.168,48.04L174.072,65L166.2,65L170.04,49.064Q170.232,48.04,170.488,46.952Q170.744,45.864,170.744,44.776Q170.744,43.304,169.976,42.184Q169.208,41.064,167.03199999999998,41.064Q166.2,41.064,165.208,41.224000000000004Q164.216,41.384,163.32,41.768L157.688,65L149.816,65L160.12,21.928L168.312,20.584L164.856,35.048ZM191.54399999999998,54.312Q191.54399999999998,55.464,191.928,56.392Q192.312,57.32,193.176,57.96Q194.04000000000002,58.6,195.48000000000002,58.952Q196.92000000000002,59.304,199.096,59.304Q201.656,59.304,203.95999999999998,58.76Q206.264,58.216,207.352,57.704L207.864,63.656Q206.328,64.424,203.576,65.096Q200.824,65.768,197.56,65.768Q193.912,65.768,191.288,64.84Q188.664,63.912,187,62.248Q185.336,60.584,184.56799999999998,58.312Q183.8,56.04,183.8,53.288Q183.8,49.576,185.048,46.088Q186.296,42.6,188.696,39.976Q191.096,37.352000000000004,194.51999999999998,35.751999999999995Q197.94400000000002,34.152,202.36,34.152Q206.776,34.152,209.59199999999998,36.328Q212.40800000000002,38.504000000000005,212.40800000000002,42.408Q212.40800000000002,45.672,210.808,47.944Q209.208,50.216,206.392,51.624Q203.576,53.032,199.768,53.672Q195.95999999999998,54.312,191.54399999999998,54.312ZM200.888,40.424Q197.94400000000002,40.424,195.288,42.44Q192.632,44.456,191.608,48.872Q195.64,48.872,198.232,48.36Q200.824,47.848,202.296,47.048Q203.768,46.248,204.344,45.288Q204.92000000000002,44.328,204.92000000000002,43.495999999999995Q204.92000000000002,42.024,203.864,41.224000000000004Q202.808,40.424,200.888,40.424ZM220.728,36.2Q222.712,35.56,225.912,34.92Q229.112,34.28,232.76,34.28Q238.136,34.28,240.47199999999998,36.584Q242.808,38.888000000000005,242.808,42.984Q242.808,44.072,242.648,45.352Q242.488,46.632,242.168,48.04L238.00799999999998,65L230.136,65L234.04000000000002,49.064Q234.232,48.04,234.488,46.952Q234.744,45.864,234.744,44.776Q234.744,43.304,233.94400000000002,42.184Q233.144,41.064,231.03199999999998,41.064Q230.136,41.064,229.176,41.224000000000004Q228.216,41.384,227.32,41.768L221.688,65L213.816,65L220.728,36.2ZM271.03200000000004,61.48Q270.13599999999997,65.19200000000001,268.79200000000003,67.88Q267.448,70.568,265.368,72.328Q263.288,74.088,260.408,74.92Q257.528,75.75200000000001,253.624,75.75200000000001Q250.232,75.75200000000001,247.832,75.144Q245.432,74.536,243.064,73.256L245.816,67.048Q247.48,67.75200000000001,249.56,68.392Q251.64,69.032,254.392,69.032Q258.23199999999997,69.032,260.18399999999997,67.4Q262.13599999999997,65.768,262.776,63.08L263.15999999999997,61.416Q261.752,62.12,260.28,62.536Q258.808,62.952,257.464,62.952Q252.344,62.952,250.104,60.072Q247.864,57.192,247.864,52.456Q247.864,48.104,249.432,44.712Q251,41.32,253.624,39.016Q256.248,36.712,259.608,35.495999999999995Q262.96799999999996,34.28,266.552,34.28Q269.24,34.28,271.96000000000004,34.696Q274.68,35.111999999999995,277.11199999999997,36.135999999999996L271.03200000000004,61.48ZM268.08799999999997,41.064Q266.552,40.68,265.144,40.68Q262.96799999999996,40.68,261.20799999999997,41.608000000000004Q259.448,42.536,258.2,44.072Q256.952,45.608,256.248,47.656Q255.544,49.704,255.544,51.88Q255.544,53.8,256.376,55.208Q257.20799999999997,56.616,259.76800000000003,56.616Q260.664,56.616,262.03999999999996,56.264Q263.416,55.912,264.696,55.08L268.08799999999997,41.064ZM336.376,51.752Q335.672,54.76,334.584,57.352Q333.496,59.944,331.704,61.832Q329.91200000000003,63.72,327.192,64.77600000000001Q324.472,65.832,320.568,65.832Q318.52,65.832,316.76,65.416Q315,65,313.624,64.36Q312.248,63.72,311.15999999999997,62.952Q310.072,62.184,309.368,61.48L313.4,55.784Q314.68,56.936,316.44,57.96Q318.2,58.984,320.44,58.984Q323.512,58.984,325.528,57.352Q327.544,55.72,328.632,51.304L333.24,31.912L320.44,31.912L321.976,25.384L342.648,25.384L336.376,51.752ZM353.144,65.70400000000001Q347.96000000000004,65.70400000000001,345.91200000000003,63.272Q343.86400000000003,60.84,343.86400000000003,56.616Q343.86400000000003,53.672,344.76,49.768L348.344,34.92L356.216,34.92L352.824,49.256Q352.312,51.176,352.05600000000004,52.744Q351.8,54.312,351.8,55.528Q351.8,58.856,355,58.856Q356.79200000000003,58.856,357.848,58.12Q358.904,57.384,359.86400000000003,56.296Q359.99199999999996,55.4,360.08799999999997,54.568Q360.18399999999997,53.736,360.504,52.648L364.728,34.92L372.6,34.92L368.312,52.712Q368.05600000000004,53.864,367.89599999999996,54.984Q367.736,56.104,367.736,57.256Q367.736,59.112,368.12,60.872Q368.504,62.632,369.08000000000004,64.36L362.168,65.512Q362.03999999999996,65.256,361.848,64.872Q361.656,64.488,361.464,64.03999999999999Q361.272,63.592,361.144,63.24Q361.01599999999996,62.888,360.952,62.696Q359.672,63.656,357.624,64.68Q355.576,65.70400000000001,353.144,65.70400000000001ZM380.728,36.2Q382.712,35.56,385.912,34.92Q389.112,34.28,392.76,34.28Q398.136,34.28,400.472,36.584Q402.808,38.888000000000005,402.808,42.984Q402.808,44.072,402.648,45.352Q402.488,46.632,402.168,48.04L398.008,65L390.136,65L394.04,49.064Q394.232,48.04,394.488,46.952Q394.744,45.864,394.744,44.776Q394.744,43.304,393.944,42.184Q393.144,41.064,391.032,41.064Q390.136,41.064,389.176,41.224000000000004Q388.216,41.384,387.32,41.768L381.688,65L373.816,65L380.728,36.2ZM438.008,31.784Q434.296,35.944,431.16,39.528Q428.024,43.111999999999995,425.272,46.344Q422.52,49.576,420.024,52.584Q417.528,55.592,415.16,58.536L432.376,58.536L430.776,65L404.792,65L406.072,59.816Q408.056,57.128,410.328,54.184Q412.6,51.24,415.384,47.88Q418.168,44.52,421.592,40.552Q425.016,36.584,429.24,31.848L413.24,31.848L414.84,25.384L439.544,25.384L438.008,31.784ZM452.856,35.048Q453.944,34.728,455.096,34.504000000000005Q456.248,34.28,457.336,34.28Q462.072,34.28,464.44,36.552Q466.808,38.824,466.808,42.984Q466.808,44.072,466.648,45.352Q466.488,46.632,466.168,48.04L462.072,65L454.2,65L458.04,49.064Q458.232,48.04,458.488,46.952Q458.744,45.864,458.744,44.776Q458.744,43.304,457.976,42.184Q457.208,41.064,455.032,41.064Q454.2,41.064,453.208,41.224000000000004Q452.216,41.384,451.32,41.768L445.688,65L437.816,65L448.12,21.928L456.312,20.584L452.856,35.048ZM479.544,54.312Q479.544,55.464,479.928,56.392Q480.312,57.32,481.176,57.96Q482.04,58.6,483.48,58.952Q484.92,59.304,487.096,59.304Q489.656,59.304,491.96,58.76Q494.264,58.216,495.352,57.704L495.864,63.656Q494.328,64.424,491.576,65.096Q488.824,65.768,485.56,65.768Q481.912,65.768,479.288,64.84Q476.664,63.912,475,62.248Q473.336,60.584,472.568,58.312Q471.8,56.04,471.8,53.288Q471.8,49.576,473.048,46.088Q474.296,42.6,476.696,39.976Q479.096,37.352000000000004,482.52,35.751999999999995Q485.944,34.152,490.36,34.152Q494.776,34.152,497.592,36.328Q500.408,38.504000000000005,500.408,42.408Q500.408,45.672,498.808,47.944Q497.208,50.216,494.392,51.624Q491.576,53.032,487.768,53.672Q483.96,54.312,479.544,54.312ZM488.888,40.424Q485.944,40.424,483.288,42.44Q480.632,44.456,479.608,48.872Q483.64,48.872,486.232,48.36Q488.824,47.848,490.296,47.048Q491.768,46.248,492.344,45.288Q492.92,44.328,492.92,43.495999999999995Q492.92,42.024,491.864,41.224000000000004Q490.808,40.424,488.888,40.424Z" fill="#FFFFFF" fill-opacity="1"/></g><g clip-path="url(#master_svg1_33_0161)"><g><path d="M82.8821,26.169517919921876C82.8816,24.848817919921874,82.5991,23.681817919921876,82.0279,22.680217919921876C81.4668,21.695317919921877,80.6266,20.869817919921875,79.4995,20.217117919921876C70.1957,14.852517919921874,60.883,9.504367919921876,51.5823,4.1343279199218745C49.0749,2.686751919921875,46.6438,2.739525919921875,44.1549,4.207887919921875C40.4518,6.391827919921875,21.91133,17.014017919921876,16.38652,20.214117919921875C14.11125,21.531217919921875,13.00410156,23.547017919921874,13.00355469,26.167117919921875C13,36.95561791992188,13.00355469,47.743817919921874,13,58.53251791992187C13.000546875,59.82421791992188,13.270977,60.968617919921876,13.817031,61.955117919921875C14.3784,62.96981791992187,15.23043,63.818117919921875,16.38352,64.48551791992188C21.90859,67.68561791992188,40.451499999999996,78.30701791992188,44.153800000000004,80.49141791992187C46.6437,81.96061791992187,49.0749,82.01311791992188,51.5831,80.56501791992187C60.8841,75.19471791992187,70.1974,69.84681791992188,79.5025,64.48221791992188C80.6555,63.81501791992188,81.5076,62.96631791992188,82.0689,61.95241791992188C82.6142,60.965817919921875,82.8852,59.821517919921874,82.8857,58.52951791992187Q82.8857,36.958317919921875,82.8821,26.169517919921876Z" fill="#5C8DBC" fill-opacity="1"/></g><g><path d="M48.049838671875,42.24467468261719L13.817138671875,61.955174682617184C14.378505671875,62.96987468261719,15.230538671875,63.81807468261719,16.383618671875,64.48557468261718C21.908698671875,67.68557468261719,40.451638671875,78.30697468261718,44.153938671875,80.4914746826172C46.643838671875,81.9606746826172,49.075038671875,82.01317468261719,51.583238671875,80.56497468261719C60.884238671875,75.19467468261719,70.19753867187501,69.8467746826172,79.502538671875,64.48227468261719C80.655638671875,63.81507468261719,81.507738671875,62.96627468261718,82.069038671875,61.95237468261719L48.049838671875,42.24467468261719Z" fill="#1A4674" fill-opacity="1"/></g><g><path d="M37.910400390625,48.08312994140625C39.902390390625,51.56069994140625,43.647120390625,53.90628994140625,47.942800390625,53.90628994140625C52.265000390625,53.90628994140625,56.031100390625,51.53089994140625,58.013000390624995,48.01612994140625L48.049700390625,42.24468994140625L37.910400390625,48.08312994140625Z" fill="#1A4674" fill-opacity="1"/></g><g><path d="M82.881960546875,26.169561557617186C82.881360546875,24.848851557617188,82.59896054687499,23.681821557617187,82.027760546875,22.680221557617188L48.049560546875,42.24472155761718L82.068760546875,61.952421557617185C82.613960546875,60.96582155761719,82.88496054687499,59.82152155761719,82.88546054687501,58.52952155761719Q82.88546054687501,36.95832155761719,82.881960546875,26.169561557617186Z" fill="#1B598E" fill-opacity="1"/></g><g><path d="M81.011669921875,43.65342509765625L78.353269921875,43.65342509765625L78.353269921875,46.31232509765625L75.694369921875,46.31232509765625L75.694369921875,43.65342509765625L73.036319921875,43.65342509765625L73.036319921875,40.99533509765625L75.694369921875,40.99533509765625L75.694369921875,38.33697509765625L78.353269921875,38.33697509765625L78.353269921875,40.99533509765625L81.011669921875,40.99533509765625L81.011669921875,43.65342509765625ZM71.311469921875,43.65342509765625L68.653389921875,43.65342509765625L68.653389921875,46.31232509765625L65.995029921875,46.31232509765625L65.995029921875,43.65342509765625L63.336669921875,43.65342509765625L63.336669921875,40.99533509765625L65.995029921875,40.99533509765625L65.995029921875,38.33697509765625L68.653389921875,38.33697509765625L68.653389921875,40.99533509765625L71.311469921875,40.99533509765625L71.311469921875,43.65342509765625Z" fill="#FFFFFF" fill-opacity="1"/></g><g><path d="M58.01306328125,48.01613725585938C56.03116328125,51.530837255859375,52.26506328125,53.906237255859374,47.94286328125,53.906237255859374C43.64716328125,53.906237255859374,39.90246328125,51.56073725585937,37.91046328125,48.08313725585937C36.90976328125,46.33813725585938,36.38426328125,44.36123725585938,36.38626328125,42.34963725585938C36.38626328125,35.96733725585938,41.56056328125,30.793337255859377,47.94286328125,30.793337255859377C52.21096328125,30.793337255859377,55.93596328125,33.109637255859376,57.93786328125,36.55173725585938L68.03886328125,30.735137255859375C64.02396328124999,23.804597255859374,56.52826328125,19.141937255859375,47.94286328125,19.141937255859375C35.12526328125,19.141937255859375,24.73486328125,29.532537255859374,24.73486328125,42.34963725585938C24.73486328125,46.554637255859376,25.85349328125,50.49783725585937,27.80857328125,53.89913725585937C31.81334328125,60.86633725585938,39.33036328125,65.55763725585938,47.94286328125,65.55763725585938C56.57116328125,65.55763725585938,64.10006328125,60.847437255859376,68.09906328125,53.85973725585937L58.01306328125,48.01613725585938Z" fill="#FFFFFF" fill-opacity="1"/></g></g><g clip-path="url(#master_svg2_33_968)"><g><g><path d="M555.9480734374999,72.5279771484375Q556.7709734375,72.0360771484375,558.2559734375,69.89847714843751Q558.2275734375,69.5673771484375,558.1046734375,69.18907714843749Q557.4425734375,70.6550771484375,555.9480734374999,72.5279771484375ZM550.5149634375,76.53807714843751Q553.8145734375,74.0206771484375,556.5302734375,69.3837771484375Q556.6032734375,69.5301771484375,556.6125734375,69.64797714843749Q557.8507734375,68.15567714843749,558.3471734375,67.0963771484375Q558.4076734375,66.7391771484375,558.3955734375,66.6301771484375L558.6078734375,66.5567771484375Q558.9385734375,65.1301771484375,558.9669734375,64.8747771484375L559.3106734375,64.6217771484375Q560.3113734375,59.242277148437495,560.4128734375,58.5549771484375C560.5184734375,57.840177148437505,560.5458734375,56.4712771484375,560.9892734375,56.2642771484375Q560.9350734375,59.4636771484375,560.5491734375,60.288377148437505Q561.0560734375,58.971777148437496,561.1846734375,57.6854771484375Q561.3132734375,56.3990771484375,561.6538734375,56.716877148437504Q561.7566734375,57.0562771484375,561.7372734375,57.1724771484375Q562.3709734375,55.0996771484375,561.5026734375,51.9221771484375Q560.6344734375,48.7447771484375,559.9065734375,48.1277771484375Q560.0023734375,48.7129771484375,559.9928734375,48.8927771484375Q559.3497734375,48.2542771484375,559.4088734375,47.3675771484375L559.0423734375,47.0010771484375L559.0406734375,46.5304771484375Q558.5210734375,46.1788771484375,558.0628734375,43.9767771484375Q557.7959734375,44.1374771484375,557.7731734375,44.2206771484375Q557.7156734375,43.1646771484375,557.3088734375,42.7579371484375Q557.0439734375,42.8998471484375,556.8453734375,42.3795671484375Q556.6467734375,41.8593971484375,555.8521734375,40.7338571484375Q555.9096734375,40.6018171484375,556.0259734374999,40.6211271484375Q555.2413734375,40.0158571484375,555.1154734375,39.6865371484375C554.9896734375,39.3572171484375,555.1493734375,39.2845371484375,555.2075734375,39.2410371484375Q554.6474734375,38.6939171484375,554.7261734375,37.9917771484375Q554.5263734375,37.9675871484375,554.3872734375,38.0280571484375Q554.2782734375,37.5498271484375,554.3266734375,37.295627148437504Q554.1214734375,37.2048671484375,554.1118734375,36.8513571484375Q554.1554734375,36.3671471484375,554.3297734375,36.6479771484375Q554.4005734375,36.2801471484375,553.7855734375,35.4326671484375Q553.6154734375,33.6688901484375,553.8400734375,33.0540771484375Q550.9671034375,34.4370471484375,548.1177334375,37.9957671484375Q548.0315134375,37.9696971484375,548.0364034375,37.838987148437496Q546.0907634375,40.0050871484375,545.4759534375,42.3815671484375Q545.3818634375,42.463897148437496,545.2898834375,42.4202871484375Q544.5050834375,44.6822771484375,544.4311834375,45.2437771484375Q544.3133534375,45.3064771484375,544.1015334375,45.2837771484375Q543.1758184375,48.9271771484375,543.1203394375,50.4050771484375Q543.1081344375,50.5337771484375,542.9677734375,50.6741771484375Q543.1711584375,50.8485771484375,543.2098804375,51.047077148437495C543.2486034375,51.245577148437505,543.4638614375,54.7120771484375,543.6855524375,55.2441771484375Q543.8434454375,55.363877148437496,543.8919334375,55.3589771484375Q545.0898234375,62.2844771484375,547.1450834375,64.1318771484375Q545.7167334375,60.6137771484375,546.1896334375,59.2612771484375Q546.2658634375,59.045377148437495,546.4232034375,59.0212771484375Q545.6863334375,56.4714771484375,547.3119634375,53.427077148437505Q547.3545734375,53.248577148437505,547.3261734375,53.0593771484375Q548.0561534375,51.426377148437496,548.9868634375,50.8436771484375Q548.7598434375,50.8588771484375,548.6614234375,50.7982771484375Q549.9100234375,49.0503771484375,550.7272234375,48.7552771484375Q551.4914934375,49.1411771484375,552.5129634375,50.6544771484375Q552.6264734375,52.326877148437504,552.9820734375,52.7202771484375Q553.1409734375,52.031677148437495,553.1787734375,51.8349771484375Q553.7606734375,52.4724771484375,553.7908734375,54.268277148437505L554.3054734375,54.3590771484375Q554.3760734375,55.3477771484375,554.2650734375,55.6706771484375Q554.4869734375,55.589877148437495,554.6081734375,55.5696771484375Q554.9804734375,57.747277148437504,555.0435734375,58.9769771484375Q554.7621734375,59.0220771484375,554.6813734375,58.9656771484375Q555.0413734375,59.6485771484375,555.1019734375,60.0823771484375Q555.1623734375,60.516277148437496,555.1019734375,61.454477148437505Q554.9202734375,61.666377148437505,554.7487734375,61.7974771484375L554.7698734375,62.3823771484375L554.2893734375,62.3409771484375Q554.7041734375,62.8558771484375,554.6880734375,63.340177148437505C554.6718734375,63.824477148437495,554.4216734375,64.1150771484375,554.3167734375,64.2279771484375Q554.7325734375,64.4392771484375,554.8838734375,64.4291771484375Q554.9747734375,64.8427771484375,554.4198734375,65.1757771484375Q554.5311734375,67.0565771484375,554.4773734375,67.2012771484375Q554.4236734375,67.3459771484375,554.2253734375,67.6103771484375Q554.3905734375,67.8407771484375,554.5146734375,67.8614771484375Q554.4161734375,68.3502771484375,554.2774734375,68.4763771484375C554.1387734375,68.6024771484375,553.9369734375,69.6113771484375,553.8739734375,69.9014771484375Q553.8108734375,70.1914771484375,553.5330734375,70.5155771484375Q553.4173734375,70.16427714843749,553.4545734375,69.9452771484375Q553.1777734375,70.7970771484375,553.2565734375,71.5655771484375Q553.3354734375,72.3340771484375,552.9182834375,73.21307714843749L550.5149634375,76.53807714843751Z" fill-rule="evenodd" fill="#53AAF6" fill-opacity="1"/></g><g><path d="M549.9468634375,51.54604155273438Q549.2172134375,51.94644155273437,548.9589034375,52.00454155273437Q549.3399334375,51.14574155273438,550.3020334375,50.43554155273438Q549.5336534375,51.42974155273437,549.4948234375,51.60424155273438Q549.8305834375,51.63654155273437,549.9468634375,51.54604155273438ZM546.8317434375,57.39014155273438Q547.2352934375,56.43774155273438,547.3967434375,56.316641552734374Q547.5258934375,54.69434155273437,547.7115234375,54.403741552734374Q547.0738534375,55.56204155273437,546.8317434375,57.39014155273438ZM549.6305234375,34.695921552734376Q550.9192934375,33.939302552734375,551.9080234375,33.031341552734375Q551.0706334375,33.112005652734375,550.7477534375,33.33391955273437Q550.4249734375001,33.55594355273438,549.6305234375,34.695921552734376ZM556.7924234375,40.000001552734375Q556.8893234375,39.59045155273438,557.1637234375,39.348341552734375Q555.8562234375,38.468571552734375,555.8239234375,37.95206155273438Q555.4606234375,39.287651552734374,556.7924234375,40.000001552734375ZM543.9453134375,57.94374155273438Q542.1018714375,53.420441552734374,542.9847534375,51.040141552734376Q543.2255334375,50.61064155273438,543.4424534375,51.02904155273437L543.5199034375,50.321341552734374Q542.7347694375,51.27294155273437,542.6676404375,50.43554155273438C542.6004004375,49.598141552734376,542.7559634375,47.33394155273437,543.3990734375,46.07274155273437Q542.6676404375,47.34654155273438,542.5162954375,48.49424155273437Q542.4828964375,48.90904155273438,542.3950194375,48.340841552734375C542.3072524375,47.77264155273438,543.3850934375,44.965841552734375,543.7886434375,44.42354155273438Q539.6325234375,49.22814155273437,543.9453134375,57.94374155273438ZM559.6642234375,65.03944155273437Q561.1815234375,62.35574155273437,561.7332234375,57.94374155273438Q561.5558234375,57.925841552734376,561.3785234375,58.24124155273438Q560.6888234375,62.93744155273437,559.6642234375,65.03944155273437Z" fill-rule="evenodd" fill="#53AAF6" fill-opacity="1"/></g><g><path d="M543.669,66.4521Q531.2455,68.3888,512,80Q543.8035,24.2012,552,0Q559.8599,21.8293,592,80C577.2998,70.9238,564.321,67.3496,563.6158,67.1592Q565.5101999999999,61.5804,565.4508,58.9913L565.0438,59.6455C564.8088,62.6225,563.7136,65.991,563.3147,67.1399L562.3221,67.0988Q563.6171,63.4448,563.9572000000001,57.7368L564.5538,56.9671Q564.7462,59.0068,563.8860999999999,62.6317Q564.2309,61.942,564.7432,58.8188Q564.9206,58.6316,565.5198,57.4284Q565.4952,57.7115,565.6115,58.1374Q567.0548,51.6427,562.9082,45.4814Q563.0974,45.8976,563.0974,46.5975Q562.7065,45.8976,562.511,45.5319Q562.3155,45.1661,562.3344,44.3653L561.7732,43.8924L561.7661,43.2519C561.5888,43.045,561.0666,42.3357,560.9681,41.6263Q560.8696,40.9168,560.3914,39.6621Q560.2652,39.9617,560.0288,40.0799Q559.9342,38.6138,559.4456,37.992Q559.3044,38.0476,559.0542,38.0446L558.7435,37.3344L558.4681,37.258Q558.3006,36.8245,557.2575,35.0585Q557.352,35.0775,557.5692,34.9947Q556.4952,34.2263,556.2194,33.4896Q556.4086,33.3131,556.4779,33.0314Q555.6645,32.3775,555.7369,31.3013L555.2167,31.4432L555.2403,30.5998Q554.9566,30.1978,554.9272,29.2505L555.3068,29.3476Q553.9643,28.153,554.5246,24.4483Q548.7998,28.1045,546.6076,31.4665L546.3422,31.2259Q542.2048,36.7583,542.936,37.611L542.5942,37.7715Q541.6552,41.497,541.3318,41.6011L540.9793999999999,41.6455Q540.0942,44.301,539.6729,48.4979C539.6927,48.6358,539.1409,50.3797,538.9537,48.2069Q538.7665,46.0341,540.0317,42.4607Q539.3389999999999,43.292,538.6491,45.9831Q538.6973,43.8905,540.5885,40Q534.4998,48.883,540.802,59.2623Q539.8876,56.988,539.4265,54.7847C538.9654,52.5813,539.1309,50.7218,539.3556,49.8233Q539.5801,48.9247,539.8157,49.4904Q540.1441,53.7307,540.235,54.4995Q540.3258,55.2682,540.6492,55.546Q541.3028,60.1687,542.485,62.5628C543.3288,64.2715,543.5891,65.7474,543.669,66.4521Z" fill-rule="evenodd" fill="#53AAF6" fill-opacity="1"/></g></g></g></g></svg>