<svg xmlns="http://www.w3.org/2000/svg" xmlns:xlink="http://www.w3.org/1999/xlink" fill="none" version="1.1" width="360" height="345" viewBox="0 0 360 345"><defs><clipPath id="master_svg0_0_6076"><rect x="0" y="0" width="360" height="345" rx="20"/></clipPath><clipPath id="master_svg1_0_6084"><rect x="139.5" y="125" width="72" height="30" rx="15"/></clipPath><clipPath id="master_svg2_0_6089"><rect x="294" y="22" width="43" height="43" rx="7"/></clipPath><linearGradient x1="0.5" y1="-3.0616171314629196e-17" x2="0.5" y2="1" id="master_svg3__4193"><stop offset="0%" stop-color="#00FAFF" stop-opacity="0.11999999731779099"/><stop offset="100%" stop-color="#0A9396" stop-opacity="0"/></linearGradient><linearGradient x1="1" y1="-7.494119245166075e-7" x2="-2.3922034131373948e-8" y2="0.7229723930358887" id="master_svg4__4195"><stop offset="0%" stop-color="#FFD600" stop-opacity="1"/><stop offset="100%" stop-color="#EBFF00" stop-opacity="1"/></linearGradient></defs><g clip-path="url(#master_svg0_0_6076)"><rect x="0" y="0" width="360" height="345" rx="20" fill="#0A0D10" fill-opacity="1"/><g><g><path d="M119.0694,68L125.1306,68L125.1306,66.8971L120.3546,66.8971L120.3546,63.274100000000004L124.25110000000001,63.274100000000004L124.25110000000001,62.1667L120.3546,62.1667L120.3546,58.885419999999996L124.9757,58.885419999999996L124.9757,57.791669999999996L119.0694,57.791669999999996L119.0694,68ZM125.753,68L127.0974,68L128.1182,66.2272C128.3825,65.76689999999999,128.61950000000002,65.3066,128.8884,64.8737L128.9567,64.8737C129.253,65.3066,129.531,65.76689999999999,129.7816,66.2272L130.9027,68L132.30180000000001,68L129.7953,64.1764L132.1058,60.4167L130.7797,60.4167L129.8409,62.0801C129.5993,62.513,129.3897,62.9186,129.1664,63.3516L129.098,63.3516C128.8474,62.9186,128.5785,62.513,128.3552,62.0801L127.3343,60.4167L125.94890000000001,60.4167L128.2595,64.0488L125.753,68ZM133.5485,71.20830000000001L134.8382,71.20830000000001L134.8382,68.7246L134.7972,67.4121C135.4808,67.9863,136.2099,68.29169999999999,136.89350000000002,68.29169999999999C138.6299,68.29169999999999,140.1976,66.7832,140.1976,64.09440000000001C140.1976,61.6699,139.13569999999999,60.125,137.1761,60.125C136.292,60.125,135.4398,60.6309,134.7516,61.2051L134.7243,61.2051L134.6012,60.4167L133.5485,60.4167L133.5485,71.20830000000001ZM136.6839,67.2161C136.1826,67.2161,135.5081,67.0156,134.8382,66.42320000000001L134.8382,62.275999999999996C135.5674,61.5833,136.2236,61.2051,136.8525,61.2051C138.3109,61.2051,138.8714,62.3626,138.8714,64.10810000000001C138.8714,66.0677,137.9463,67.2161,136.6839,67.2161ZM145.0992,68.29169999999999C146.12,68.29169999999999,146.9358,67.959,147.59210000000002,67.526L147.1454,66.6465C146.5712,67.0384,145.98329999999999,67.27080000000001,145.2405,67.27080000000001C143.79579999999999,67.27080000000001,142.8023,66.1953,142.7203,64.5L147.8427,64.5C147.87,64.304,147.902,64.0534,147.902,63.7754C147.902,61.537800000000004,146.8082,60.125,144.8622,60.125C143.1259,60.125,141.4579,61.6699,141.4579,64.2083C141.4579,66.806,143.0712,68.29169999999999,145.0992,68.29169999999999ZM142.7066,63.5931C142.857,62.0299,143.8095,61.1504,144.8896,61.1504C146.079,61.1504,146.7809,62.0026,146.7809,63.5931L142.7066,63.5931ZM152.6122,68.29169999999999C153.51909999999998,68.29169999999999,154.3895,67.9316,155.0731,67.3438L154.51260000000002,66.4505C154.0386,66.8835,153.42340000000002,67.2298,152.7215,67.2298C151.3225,67.2298,150.37,66.0312,150.37,64.2266C150.37,62.4173,151.37720000000002,61.2051,152.76260000000002,61.2051C153.3505,61.2051,153.8426,61.4785,154.2756,61.884100000000004L154.92270000000002,61.022800000000004C154.3895,60.5488,153.7014,60.125,152.7079,60.125C150.7482,60.125,149.0529,61.6107,149.0529,64.2266C149.0529,66.8242,150.5933,68.29169999999999,152.6122,68.29169999999999ZM158.7124,68.29169999999999C159.1909,68.29169999999999,159.6922,68.1549,160.1297,68.0137L159.8745,67.043C159.62380000000002,67.15690000000001,159.28660000000002,67.2572,159.0086,67.2572C158.1245,67.2572,157.83280000000002,66.71940000000001,157.83280000000002,65.78059999999999L157.83280000000002,61.4557L159.90640000000002,61.4557L159.90640000000002,60.4167L157.83280000000002,60.4167L157.83280000000002,58.27474L156.7664,58.27474L156.6297,60.4167L155.422,60.489599999999996L155.422,61.4557L156.5568,61.4557L156.5568,65.735C156.5568,67.28450000000001,157.1037,68.29169999999999,158.7124,68.29169999999999ZM164.38420000000002,68.29169999999999C165.405,68.29169999999999,166.2208,67.959,166.87709999999998,67.526L166.43040000000002,66.6465C165.8562,67.0384,165.2683,67.27080000000001,164.5255,67.27080000000001C163.0808,67.27080000000001,162.0873,66.1953,162.0053,64.5L167.1277,64.5C167.155,64.304,167.18689999999998,64.0534,167.18689999999998,63.7754C167.18689999999998,61.537800000000004,166.0932,60.125,164.1472,60.125C162.4109,60.125,160.74290000000002,61.6699,160.74290000000002,64.2083C160.74290000000002,66.806,162.3562,68.29169999999999,164.38420000000002,68.29169999999999ZM161.9916,63.5931C162.142,62.0299,163.09449999999998,61.1504,164.1746,61.1504C165.364,61.1504,166.0658,62.0026,166.0658,63.5931L161.9916,63.5931ZM171.4916,68.29169999999999C172.3985,68.29169999999999,173.2097,67.804,173.7976,67.2161L173.8431,67.2161L173.9525,68L175.0053,68L175.0053,56.77995L173.71550000000002,56.77995L173.71550000000002,59.70573L173.78390000000002,61.009100000000004C173.114,60.462199999999996,172.5398,60.125,171.642,60.125C169.9056,60.125,168.35160000000002,61.6699,168.35160000000002,64.1628C168.35160000000002,66.8424,169.5866,68.29169999999999,171.4916,68.29169999999999ZM171.7696,67.2161C170.4389,67.2161,169.6687,66.10419999999999,169.6687,64.2129C169.6687,62.4219,170.6485,61.2051,171.8653,61.2051C172.49869999999999,61.2051,173.0866,61.4375,173.71550000000002,62.0299L173.71550000000002,66.1452C173.0866,66.8698,172.47140000000002,67.2161,171.7696,67.2161ZM183.3775,68.29169999999999C184.398,68.29169999999999,185.214,67.959,185.87,67.526L185.424,66.6465C184.85,67.0384,184.262,67.27080000000001,183.5188,67.27080000000001C182.07420000000002,67.27080000000001,181.08069999999998,66.1953,180.9986,64.5L186.12099999999998,64.5C186.148,64.304,186.18,64.0534,186.18,63.7754C186.18,61.537800000000004,185.087,60.125,183.1406,60.125C181.4042,60.125,179.7363,61.6699,179.7363,64.2083C179.7363,66.806,181.3496,68.29169999999999,183.3775,68.29169999999999ZM180.985,63.5931C181.1354,62.0299,182.08780000000002,61.1504,183.1679,61.1504C184.357,61.1504,185.059,62.0026,185.059,63.5931L180.985,63.5931ZM189.642,68.29169999999999C190.58100000000002,68.29169999999999,191.433,67.804,192.162,67.1979L192.203,67.1979L192.317,68L193.365,68L193.365,63.274100000000004C193.365,61.36,192.595,60.125,190.736,60.125C189.501,60.125,188.439,60.6719,187.751,61.123L188.243,62.0117C188.844,61.6016,189.642,61.1914,190.526,61.1914C191.76999999999998,61.1914,192.094,62.1393,192.094,63.1328C188.858,63.4974,187.43200000000002,64.3359,187.43200000000002,66.0039C187.43200000000002,67.5078,188.37,68.29169999999999,189.642,68.29169999999999ZM190.006,67.2572C189.25,67.2572,188.662,66.9108,188.662,66.0176C188.662,65.0059,189.53199999999998,64.3542,192.094,64.0534L192.094,66.23179999999999C191.351,66.9108,190.736,67.2572,190.006,67.2572ZM195.487,68L196.777,68L196.777,63.0599C197.27800000000002,61.7565,198.048,61.2734,198.68099999999998,61.2734C199,61.2734,199.16899999999998,61.319,199.42000000000002,61.400999999999996L199.661,60.4167C199.42000000000002,60.1706,199.183,60.125,198.846,60.125C198.007,60.125,197.223,60.7448,196.69,61.7155L196.663,61.7155L196.54000000000002,60.4167L195.487,60.4167L195.487,68ZM200.748,68L202.038,68L202.038,62.4219C202.79500000000002,61.6426,203.32299999999998,61.2461,204.107,61.2461C205.119,61.2461,205.55200000000002,61.8568,205.55200000000002,63.3014L205.55200000000002,68L206.828,68L206.828,63.1328C206.828,61.1777,206.099,60.125,204.50400000000002,60.125C203.465,60.125,202.667,60.6992,201.952,61.432900000000004L201.924,61.432900000000004L201.801,60.4167L200.748,60.4167L200.748,68ZM208.92700000000002,68L210.21699999999998,68L210.21699999999998,60.4167L208.92700000000002,60.4167L208.92700000000002,68ZM209.56900000000002,58.88997C210.075,58.88997,210.426,58.55273,210.426,58.03776C210.426,57.54557,210.075,57.208330000000004,209.56900000000002,57.208330000000004C209.06799999999998,57.208330000000004,208.731,57.54557,208.731,58.03776C208.731,58.55273,209.06799999999998,58.88997,209.56900000000002,58.88997ZM212.438,68L213.728,68L213.728,62.4219C214.485,61.6426,215.013,61.2461,215.797,61.2461C216.809,61.2461,217.242,61.8568,217.242,63.3014L217.242,68L218.518,68L218.518,63.1328C218.518,61.1777,217.789,60.125,216.194,60.125C215.155,60.125,214.357,60.6992,213.642,61.432900000000004L213.614,61.432900000000004L213.491,60.4167L212.438,60.4167L212.438,68ZM223.178,71.5C225.534,71.5,227.029,70.3105,227.029,68.998C227.029,67.7904,226.136,67.2435,224.386,67.2435L222.886,67.2435C221.866,67.2435,221.556,66.8698,221.556,66.3594C221.556,65.9082,221.765,65.6393,222.048,65.4023C222.38,65.571,222.8,65.6667,223.164,65.6667C224.732,65.6667,225.953,64.6458,225.953,62.9915C225.953,62.3262,225.698,61.7565,225.338,61.400999999999996L226.892,61.400999999999996L226.892,60.4167L224.244,60.4167C223.976,60.211600000000004,223.602,60.125,223.164,60.125C221.638,60.125,220.325,61.1823,220.325,62.9186C220.325,63.8665,220.813,64.6413,221.319,65.0378L221.319,65.097C220.913,65.375,220.476,65.8717,220.476,66.4824C220.476,67.0658,220.772,67.4577,221.164,67.6901L221.164,67.7585C220.448,68.1823,220.043,68.8158,220.043,69.47200000000001C220.043,70.7754,221.332,71.5,223.178,71.5ZM223.164,64.8008C222.298,64.8008,221.556,64.0716,221.556,62.9186C221.556,61.752,222.285,61.0638,223.164,61.0638C224.076,61.0638,224.791,61.752,224.791,62.9186C224.791,64.0716,224.048,64.8008,223.164,64.8008ZM223.36,70.6204C221.975,70.6204,221.164,70.1009,221.164,69.2897C221.164,68.85679999999999,221.387,68.39189999999999,221.934,68C222.271,68.26429999999999,222.636,68.29169999999999,222.914,68.29169999999999L224.231,68.29169999999999C225.238,68.29169999999999,225.771,68.5286,225.771,69.1895C225.771,69.8639,224.832,70.6204,223.36,70.6204ZM230.199,68.29169999999999C231.994,68.29169999999999,232.961,67.27080000000001,232.961,65.9993C232.961,64.5137,231.753,64.0534,230.65,63.620400000000004C229.793,63.287800000000004,229.009,62.9961,229.009,62.2624C229.009,61.6426,229.461,61.123,230.427,61.123C231.097,61.123,231.63,61.4238,232.145,61.815799999999996L232.765,60.995400000000004C232.19,60.5215,231.347,60.125,230.408,60.125C228.745,60.125,227.793,61.0775,227.793,62.317099999999996C227.793,63.661500000000004,228.941,64.181,230.003,64.5866C230.846,64.901,231.739,65.2793,231.739,66.0723C231.739,66.7513,231.252,67.29820000000001,230.244,67.29820000000001C229.333,67.29820000000001,228.658,66.9245,227.989,66.3594L227.373,67.2435C228.084,67.8451,229.123,68.29169999999999,230.199,68.29169999999999Z" fill="#CED8E1" fill-opacity="1"/></g><g><path d="M146.8529,104.1094Q146.6159,107.263,144.4922,109.1315Q142.3685,111,138.84115,111Q135.04948,111,132.84376,108.54820000000001Q130.64714,106.0964,130.61068,101.8672L130.61068,100.4909Q130.61068,97.6654,131.6224,95.5508Q132.63412,93.4362,134.51172,92.306Q136.38933,91.16667,138.87761,91.16667Q142.34120000000001,91.16667,144.4375,93.026Q146.5339,94.8763,146.862,98.2122L142.7604,98.2122Q142.6146,96.2891,141.6849,95.3958Q140.7643,94.4935,138.87761,94.4935Q136.96355,94.4935,135.9336,95.6875Q134.90365,96.8724,134.73959,99.33330000000001L140.8464,99.33330000000001L140.8464,102.64189999999999L134.73959,102.64189999999999Q134.87631,105.13929999999999,135.83334,106.4336Q136.79948,107.7188,138.84115,107.7188Q140.6823,107.7188,141.6393,106.8346Q142.5964,105.9505,142.7331,104.1094L146.8529,104.1094ZM160.1602,91.16667L160.1602,94.42060000000001L159.7773,94.42060000000001Q157.0977,94.457,155.457,95.66929999999999Q153.8255,96.8724,153.4974,99.1966Q155.0833,97.5833,157.5078,97.5833Q160.1055,97.5833,161.6367,99.4245Q163.168,101.2565,163.168,104.2552Q163.168,106.16929999999999,162.3203,107.7188Q161.4818,109.26820000000001,159.9414,110.1341Q158.4102,111,156.4688,111Q153.3242,111,151.3828,108.8763Q149.4505,106.7435,149.4505,103.1888L149.4505,101.8125Q149.4505,98.6589,150.6719,96.2435Q151.9023,93.8281,154.1901,92.5065Q156.4779,91.17578,159.5039,91.16667L160.1602,91.16667ZM156.3047,100.7552Q155.3477,100.7552,154.56380000000001,101.2474Q153.7891,101.7305,153.4154,102.5326L153.4154,103.6992Q153.4154,105.6406,154.1901,106.7253Q154.974,107.8099,156.3867,107.8099Q157.65370000000001,107.8099,158.4375,106.8346Q159.2305,105.8503,159.2305,104.29169999999999Q159.2305,102.70570000000001,158.4375,101.7305Q157.6445,100.7552,156.3047,100.7552ZM178.7448,96.599Q178.7448,98.02080000000001,178.0156,99.1146Q177.2956,100.20830000000001,176.02859999999998,100.8646Q177.4779,101.5391,178.3255,102.7148Q179.1732,103.8906,179.1732,105.48570000000001Q179.1732,108.0378,177.36849999999998,109.5234Q175.56380000000001,111,172.4557,111Q169.3568,111,167.53390000000002,109.51429999999999Q165.7201,108.0286,165.7201,105.48570000000001Q165.7201,103.8906,166.5677,102.70570000000001Q167.4154,101.52080000000001,168.84640000000002,100.8646Q167.5794,100.20830000000001,166.8594,99.1146Q166.1393,98.02080000000001,166.1393,96.599Q166.1393,94.1198,167.8346,92.64320000000001Q169.53,91.16667,172.4466,91.16667Q175.3451,91.16667,177.0404,92.6341Q178.7448,94.0924,178.7448,96.599ZM175.2083,105.1758Q175.2083,103.9727,174.4518,103.2526Q173.7044,102.5234,172.4284,102.5234Q171.1706,102.5234,170.4141,103.2435Q169.6667,103.9635,169.6667,105.1758Q169.6667,106.36070000000001,170.405,107.0898Q171.1432,107.8099,172.4557,107.8099Q173.7409,107.8099,174.4701,107.1172Q175.2083,106.4154,175.2083,105.1758ZM174.7982,96.8086Q174.7982,95.70570000000001,174.1784,95.0313Q173.5677,94.35679999999999,172.4466,94.35679999999999Q171.3346,94.35679999999999,170.7148,95.013Q170.1042,95.6602,170.1042,96.8086Q170.1042,97.9479,170.7148,98.6406Q171.3346,99.33330000000001,172.4557,99.33330000000001Q173.5768,99.33330000000001,174.1875,98.6406Q174.7982,97.9479,174.7982,96.8086ZM195.7526,111L182.1081,111L182.1081,108.293L188.543,101.5938Q189.87369999999999,100.181,190.5026,99.1328Q191.1406,98.0755,191.1406,97.1276Q191.1406,95.8333,190.46609999999998,95.0951Q189.8008,94.35679999999999,188.56119999999999,94.35679999999999Q187.22140000000002,94.35679999999999,186.4466,95.25Q185.6719,96.14320000000001,185.6719,97.5924L181.707,97.5924Q181.707,95.806,182.5729,94.32939999999999Q183.4479,92.8438,185.03390000000002,92.0052Q186.6198,91.16667,188.625,91.16667Q191.7057,91.16667,193.401,92.6159Q195.1055,94.0651,195.1055,96.7174Q195.1055,98.16669999999999,194.3398,99.67060000000001Q193.57420000000002,101.1745,191.7148,103.1615L187.19400000000002,107.8099L195.7526,107.8099L195.7526,111ZM198.80599999999998,108.9036Q198.80599999999998,107.9648,199.44400000000002,107.3815Q200.082,106.7891,201.03910000000002,106.7891Q202.0052,106.7891,202.64319999999998,107.3815Q203.2812,107.9648,203.2812,108.9036Q203.2812,109.83330000000001,202.6523,110.41669999999999Q202.02339999999998,111,201.03910000000002,111Q200.06380000000001,111,199.4349,110.41669999999999Q198.80599999999998,109.83330000000001,198.80599999999998,108.9036ZM207.1914,100.91929999999999L208.3398,91.16667L219.4961,91.16667L219.4961,94.4661L211.5846,94.4661L211.0924,98.33070000000001Q212.4961,97.5833,214.082,97.5833Q216.92579999999998,97.5833,218.53910000000002,99.36070000000001Q220.1523,101.1289,220.1523,104.3099Q220.1523,106.2513,219.34109999999998,107.7826Q218.5299,109.3138,217.0078,110.1615Q215.4948,111,213.42579999999998,111Q211.6211,111,210.0716,110.27080000000001Q208.5312,109.5326,207.638,108.20179999999999Q206.7448,106.8711,206.6901,105.16669999999999L210.6003,105.16669999999999Q210.7188,106.4154,211.46609999999998,107.1172Q212.2135,107.8099,213.4167,107.8099Q214.75650000000002,107.8099,215.47660000000002,106.8438Q216.20569999999998,105.8685,216.20569999999998,104.0911Q216.20569999999998,102.3867,215.3672,101.4753Q214.5378,100.5638,213.00650000000002,100.5638Q211.5938,100.5638,210.7188,101.3112L210.33589999999998,101.66669999999999L207.1914,100.91929999999999Z" fill="#FFFFFF" fill-opacity="1"/></g><g clip-path="url(#master_svg1_0_6084)"><rect x="139.5" y="125" width="72" height="30" rx="15" fill="#FFD60A" fill-opacity="1"/><g><path d="M160.2914,139.25L162.40859,139.25L162.40859,140.7812L160.2914,140.7812L160.2914,143.1719L158.68203,143.1719L158.68203,140.7812L156.560936,140.7812L156.560936,139.25L158.68203,139.25L158.68203,136.96094L160.2914,136.96094L160.2914,139.25ZM168.9147,144L163.06703,144L163.06703,142.8398L165.82484,139.96875Q166.3952,139.36328,166.6647,138.91406Q166.9381,138.46094,166.9381,138.05469Q166.9381,137.5,166.6491,137.18359Q166.3639,136.86719,165.83265,136.86719Q165.25844,136.86719,164.9264,137.25Q164.59437,137.63281,164.59437,138.25391L162.89515,138.25391Q162.89515,137.48828,163.26625,136.85547Q163.64125,136.21875,164.32094,135.85938Q165.00062,135.5,165.86,135.5Q167.1803,135.5,167.9069,136.12109Q168.6373,136.74219,168.6373,137.87891Q168.6373,138.5,168.3092,139.14453Q167.9811,139.78906,167.1842,140.6406L165.24672,142.6328L168.9147,142.6328L168.9147,144ZM169.98329999999999,143.1016Q169.98329999999999,142.6992,170.2567,142.4492Q170.5302,142.1953,170.9403,142.1953Q171.3544,142.1953,171.6278,142.4492Q171.9012,142.6992,171.9012,143.1016Q171.9012,143.5,171.6317,143.75Q171.3622,144,170.9403,144Q170.5223,144,170.2528,143.75Q169.98329999999999,143.5,169.98329999999999,143.1016ZM178.0948,140.75L179.0636,140.75L179.0636,142.1172L178.0948,142.1172L178.0948,144L176.4034,144L176.4034,142.1172L172.9034,142.1172L172.82920000000001,141.0508L176.3839,135.5L178.0948,135.5L178.0948,140.75ZM174.51670000000001,140.75L176.4034,140.75L176.4034,137.80078L176.2902,137.98828L174.51670000000001,140.75ZM180.097,139.67969L180.5892,135.5L185.3705,135.5L185.3705,136.91406L181.9798,136.91406L181.7689,138.57031Q182.3705,138.25,183.0502,138.25Q184.2689,138.25,184.9603,139.01172Q185.6517,139.76953,185.6517,141.1328Q185.6517,141.9648,185.3041,142.6211Q184.9564,143.2773,184.3041,143.6406Q183.6556,144,182.7689,144Q181.9955,144,181.3314,143.6875Q180.6712,143.3711,180.2884,142.8008Q179.9056,142.2305,179.8822,141.5L181.558,141.5Q181.6087,142.0352,181.9291,142.3359Q182.2494,142.6328,182.765,142.6328Q183.3392,142.6328,183.6478,142.2188Q183.9603,141.8008,183.9603,141.0391Q183.9603,140.3086,183.6009,139.91797Q183.2455,139.52734,182.5892,139.52734Q181.9837,139.52734,181.6087,139.84766L181.4447,140L180.097,139.67969ZM186.5836,137.27734Q186.5836,136.48828,187.0914,135.99609Q187.6031,135.5,188.4273,135.5Q189.2672,135.5,189.775,135.98828Q190.2867,136.47656,190.2867,137.30859L190.2867,137.73438Q190.2867,138.53125,189.775,139.01562Q189.2672,139.5,188.4391,139.5Q187.607,139.5,187.0953,139.01172Q186.5836,138.52344,186.5836,137.69922L186.5836,137.27734ZM187.7086,137.73438Q187.7086,138.09375,187.9078,138.3125Q188.11090000000002,138.52734,188.4391,138.52734Q188.7672,138.52734,188.9586,138.30859Q189.1539,138.08594,189.1539,137.71875L189.1539,137.27734Q189.1539,136.92188,188.9586,136.70312Q188.7672,136.48047,188.4273,136.48047Q188.107,136.48047,187.9078,136.69922Q187.7086,136.91406,187.7086,137.30078L187.7086,137.73438ZM190.6617,141.7734Q190.6617,140.9766,191.1773,140.4883Q191.69299999999998,140,192.51330000000002,140Q193.3453,140,193.857,140.4844Q194.3688,140.9648,194.3688,141.8086L194.3688,142.2344Q194.3688,143.0234,193.8648,143.5117Q193.36090000000002,144,192.525,144Q191.6813,144,191.1695,143.5117Q190.6617,143.0195,190.6617,142.2109L190.6617,141.7734ZM191.7867,142.2344Q191.7867,142.5625,191.9977,142.7969Q192.2086,143.0273,192.525,143.0273Q193.2398,143.0273,193.2398,142.2227L193.2398,141.7734Q193.2398,141.4141,193.04059999999998,141.1992Q192.8414,140.9805,192.51330000000002,140.9805Q192.1852,140.9805,191.98590000000002,141.1992Q191.7867,141.4141,191.7867,141.7891L191.7867,142.2344ZM188.775,143.25L187.9469,142.8125L192.1148,136.25L192.9391,136.6875L188.775,143.25Z" fill="#000000" fill-opacity="1"/></g></g></g><g clip-path="url(#master_svg2_0_6089)"><rect x="294" y="22" width="43" height="43" rx="7" fill="#151A20" fill-opacity="1"/><g><path d="M307.9,39.7C307.9,39.7,308.17143,39.7,308.17143,39.7C309.21643,39.7,310.07143,40.555,310.07143,41.6C310.07143,41.6,310.07143,51.1,310.07143,51.1C310.07143,52.144999999999996,309.21643,53,308.17143,53C308.17143,53,307.9,53,307.9,53C306.855,53,306,52.144999999999996,306,51.1C306,51.1,306,41.6,306,41.6C306,40.555,306.855,39.7,307.9,39.7C307.9,39.7,307.9,39.7,307.9,39.7C307.9,39.7,307.9,39.7,307.9,39.7ZM315.5,34C316.545,34,317.4,34.855,317.4,35.9C317.4,35.9,317.4,51.1,317.4,51.1C317.4,52.144999999999996,316.545,53,315.5,53C314.455,53,313.6,52.144999999999996,313.6,51.1C313.6,51.1,313.6,35.9,313.6,35.9C313.6,34.855,314.455,34,315.5,34C315.5,34,315.5,34,315.5,34ZM323.1,44.8571C324.145,44.8571,325,45.7121,325,46.7571C325,46.7571,325,51.1,325,51.1C325,52.144999999999996,324.145,53,323.1,53C322.055,53,321.2,52.144999999999996,321.2,51.1C321.2,51.1,321.2,46.7571,321.2,46.7571C321.2,45.7121,322.055,44.8571,323.1,44.8571C323.1,44.8571,323.1,44.8571,323.1,44.8571C323.1,44.8571,323.1,44.8571,323.1,44.8571Z" fill="#FFD60A" fill-opacity="1"/></g></g><g><g><path d="M42.2346,266.21479999999997C42.2346,266.21479999999997,0,247.648,0,247.648C0,247.648,0,345.5,0,345.5C0,345.5,360,345.5,360,345.5C360,345.5,360,213.02347,360,213.02347C360,213.02347,354.972,211.51805,354.972,211.51805C354.972,211.51805,327.821,242.1282,327.821,242.1282C327.821,242.1282,316.76,239.1173,316.76,239.1173C316.76,239.1173,282.57,267.7202,282.57,267.7202C282.57,267.7202,278.547,270.2292,278.547,270.2292C278.547,270.2292,243.855,236.60829999999999,243.855,236.60829999999999C243.855,236.60829999999999,233.296,242.1282,233.296,242.1282C233.296,242.1282,214.19,211.51805,214.19,211.51805C214.19,211.51805,210.67,211.51805,210.67,211.51805C210.67,211.51805,188.547,236.60829999999999,188.547,236.60829999999999C188.547,236.60829999999999,186.034,236.60829999999999,186.034,236.60829999999999C186.034,236.60829999999999,170.95,255.6769,170.95,255.6769C170.95,255.6769,153.352,278.2581,153.352,278.2581C153.352,278.2581,148.827,281.269,148.827,281.269C148.827,281.269,138.771,269.7274,138.771,269.7274C138.771,269.7274,117.654,210.51444,117.654,210.51444C117.654,210.51444,112.626,206.5,112.626,206.5C112.626,206.5,104.581,210.51444,104.581,210.51444C104.581,210.51444,90,243.1318,90,243.1318C90,243.1318,84.4693,247.648,84.4693,247.648C84.4693,247.648,73.4078,240.6227,73.4078,240.6227C73.4078,240.6227,63.352,243.1318,63.352,243.1318C63.352,243.1318,42.2346,266.21479999999997,42.2346,266.21479999999997C42.2346,266.21479999999997,42.2346,266.21479999999997,42.2346,266.21479999999997Z" fill="url(#master_svg3__4193)" fill-opacity="1"/><path d="" fill="#0096C7" fill-opacity="1"/></g><g><path d="M38.9251,264.8851C38.9251,264.8851,39.732,263.0551,39.732,263.0551C39.732,263.0551,39.732,263.0551,39.732,263.0551C39.732,263.0551,38.9251,264.8851,38.9251,264.8851C38.9251,264.8851,38.9251,264.8851,38.9251,264.8851ZM46.7875,262.4488C46.7875,262.4488,48.4592,263.5467,48.4592,263.5467C48.4592,263.5467,46.7875,262.4488,46.7875,262.4488C46.7875,262.4488,46.7875,262.4488,46.7875,262.4488ZM79.7756,244.2447C79.7756,244.2447,78.4744,245.7635,78.4744,245.7635C78.4744,245.7635,78.4744,245.7635,78.4744,245.7635C78.4744,245.7635,79.7756,244.2447,79.7756,244.2447C79.7756,244.2447,79.7756,244.2447,79.7756,244.2447ZM153.777,278.0863C153.777,278.0863,155.381,279.2817,155.381,279.2817C155.381,279.2817,155.381,279.2817,155.381,279.2817C155.381,279.2817,153.777,278.0863,153.777,278.0863C153.777,278.0863,153.777,278.0863,153.777,278.0863ZM184.22,237.2531C184.22,237.2531,182.617,236.0576,182.617,236.0576C182.617,236.0576,182.617,236.0577,182.617,236.0577C182.617,236.0577,184.22,237.2531,184.22,237.2531C184.22,237.2531,184.22,237.2531,184.22,237.2531ZM189.412,236.333C189.412,236.333,187.806,235.1409,187.806,235.1409C187.806,235.1409,187.806,235.1409,187.806,235.1409C187.806,235.1409,189.412,236.333,189.412,236.333C189.412,236.333,189.412,236.333,189.412,236.333ZM206.019,213.96038C206.019,213.96038,207.625,215.15246,207.625,215.15246C207.625,215.15246,207.625,215.15245,207.625,215.15245C207.625,215.15245,206.019,213.96038,206.019,213.96038C206.019,213.96038,206.019,213.96038,206.019,213.96038ZM216.078,214.61673C216.078,214.61673,217.826,213.64344,217.826,213.64344C217.826,213.64344,217.826,213.64344,217.826,213.64344C217.826,213.64344,216.078,214.61673,216.078,214.61673C216.078,214.61673,216.078,214.61673,216.078,214.61673ZM228.938,237.7022C228.938,237.7022,227.191,238.6755,227.191,238.6755C227.191,238.6755,227.191,238.6755,227.191,238.6755C227.191,238.6755,228.938,237.7022,228.938,237.7022C228.938,237.7022,228.938,237.7022,228.938,237.7022ZM236.906,240.1273C236.906,240.1273,237.815,241.909,237.815,241.909C237.815,241.909,237.815,241.909,237.815,241.909C237.815,241.909,236.906,240.1273,236.906,240.1273C236.906,240.1273,236.906,240.1273,236.906,240.1273ZM241.355,237.8582C241.355,237.8582,240.446,236.0765,240.446,236.0765C240.446,236.0765,240.446,236.0765,240.446,236.0765C240.446,236.0765,241.355,237.8582,241.355,237.8582C241.355,237.8582,241.355,237.8582,241.355,237.8582ZM248.47,239.1125C248.47,239.1125,249.934,237.749,249.934,237.749C249.934,237.749,249.934,237.749,249.934,237.749C249.934,237.749,248.47,239.1125,248.47,239.1125C248.47,239.1125,248.47,239.1125,248.47,239.1125ZM274.734,267.2943C274.734,267.2943,273.271,268.6579,273.271,268.6579C273.271,268.6579,273.271,268.6579,273.271,268.6579C273.271,268.6579,274.734,267.2943,274.734,267.2943C274.734,267.2943,274.734,267.2943,274.734,267.2943ZM283.087,267.7078C283.087,267.7078,281.766,266.20640000000003,281.766,266.20640000000003C281.766,266.20640000000003,281.766,266.20640000000003,281.766,266.20640000000003C281.766,266.20640000000003,283.087,267.7078,283.087,267.7078C283.087,267.7078,283.087,267.7078,283.087,267.7078ZM314.133,240.3853C314.133,240.3853,315.454,241.8867,315.454,241.8867C315.454,241.8867,315.454,241.8867,315.454,241.8867C315.454,241.8867,314.133,240.3853,314.133,240.3853C314.133,240.3853,314.133,240.3853,314.133,240.3853ZM320.642,239.45589999999999C320.642,239.45589999999999,321.49,237.6447,321.49,237.6447C321.49,237.6447,321.49,237.6447,321.49,237.6447C321.49,237.6447,320.642,239.45589999999999,320.642,239.45589999999999C320.642,239.45589999999999,320.642,239.45589999999999,320.642,239.45589999999999ZM323.346,240.7224C323.346,240.7224,322.497,242.5336,322.497,242.5336C322.497,242.5336,322.497,242.5336,322.497,242.5336C322.497,242.5336,323.346,240.7224,323.346,240.7224C323.346,240.7224,323.346,240.7224,323.346,240.7224ZM330.628,238.9716C330.628,238.9716,329.049,237.744,329.049,237.744C329.049,237.744,329.049,237.744,329.049,237.744C329.049,237.744,330.628,238.9716,330.628,238.9716C330.628,238.9716,330.628,238.9716,330.628,238.9716ZM350.162,213.84456C350.162,213.84456,348.583,212.61701,348.583,212.61701C348.583,212.61701,348.583,212.61701,348.583,212.61701C348.583,212.61701,350.162,213.84456,350.162,213.84456C350.162,213.84456,350.162,213.84456,350.162,213.84456ZM358.703,212.88688C358.703,212.88688,359.971,211.34011,359.971,211.34011C359.971,211.34011,359.971,211.3401,359.971,211.3401C359.971,211.3401,358.703,212.88688,358.703,212.88688C358.703,212.88688,358.703,212.88688,358.703,212.88688ZM114.614,206.997302C114.614,206.997302,115.041,205.04342,115.041,205.04342C115.041,205.04342,115.041,205.04342,115.041,205.04342C115.041,205.04342,114.614,206.997302,114.614,206.997302C114.614,206.997302,114.614,206.997302,114.614,206.997302ZM133.801,255.6676C133.801,255.6676,131.935,256.3868,131.935,256.3868C131.935,256.3868,131.935,256.3868,131.935,256.3868C131.935,256.3868,133.801,255.6676,133.801,255.6676C133.801,255.6676,133.801,255.6676,133.801,255.6676ZM148.992,280.1598C148.992,280.1598,148.509,282.1008,148.509,282.1008C148.509,282.1008,148.509,282.1008,148.509,282.1008C148.509,282.1008,148.992,280.1598,148.992,280.1598C148.992,280.1598,148.992,280.1598,148.992,280.1598ZM186.815,236.7946C186.815,236.7946,187.911,235.1222,187.911,235.1222C187.911,235.1222,187.911,235.1222,187.911,235.1222C187.911,235.1222,186.815,236.7946,186.815,236.7946C186.815,236.7946,186.815,236.7946,186.815,236.7946ZM-0.80691,249.55169999999998C-0.80691,249.55169999999998,38.1182,266.7151,38.1182,266.7151C38.1182,266.7151,39.732,263.0551,39.732,263.0551C39.732,263.0551,0.80691,245.89170000000001,0.80691,245.89170000000001C0.80691,245.89170000000001,-0.80691,249.55169999999998,-0.80691,249.55169999999998C-0.80691,249.55169999999998,-0.80691,249.55169999999998,-0.80691,249.55169999999998ZM48.4592,263.5467C51.4925,258.9283,56.5741,252.0171,62.2797,247.54579999999999C65.1311,245.31130000000002,67.9857,243.8088,70.6918,243.3889C73.2976,242.9846,75.8991,243.5573,78.4744,245.7635C78.4744,245.7635,81.0768,242.7258,81.0768,242.7258C77.6116,239.7572,73.8344,238.8534,70.0785,239.43619999999999C66.4229,240.0035,62.933,241.9519,59.8124,244.3974C53.574,249.28629999999998,48.202,256.652,45.1159,261.3509C45.1159,261.3509,48.4592,263.5467,48.4592,263.5467C48.4592,263.5467,48.4592,263.5467,48.4592,263.5467ZM155.381,279.2817C155.381,279.2817,185.823,238.4485,185.823,238.4485C185.823,238.4485,182.617,236.0577,182.617,236.0577C182.617,236.0577,152.174,276.8908,152.174,276.8908C152.174,276.8908,155.381,279.2817,155.381,279.2817C155.381,279.2817,155.381,279.2817,155.381,279.2817ZM191.018,237.5251C191.018,237.5251,207.625,215.15246,207.625,215.15246C207.625,215.15246,204.413,212.76830999999999,204.413,212.76830999999999C204.413,212.76830999999999,187.806,235.1409,187.806,235.1409C187.806,235.1409,191.018,237.5251,191.018,237.5251C191.018,237.5251,191.018,237.5251,191.018,237.5251ZM214.331,215.59002C214.331,215.59002,227.191,238.6755,227.191,238.6755C227.191,238.6755,230.685,236.7289,230.685,236.7289C230.685,236.7289,217.826,213.64344,217.826,213.64344C217.826,213.64344,214.331,215.59002,214.331,215.59002C214.331,215.59002,214.331,215.59002,214.331,215.59002ZM237.815,241.909C237.815,241.909,242.264,239.6398,242.264,239.6398C242.264,239.6398,240.446,236.0765,240.446,236.0765C240.446,236.0765,235.997,238.3457,235.997,238.3457C235.997,238.3457,237.815,241.909,237.815,241.909C237.815,241.909,237.815,241.909,237.815,241.909ZM247.007,240.476C247.007,240.476,273.271,268.6579,273.271,268.6579C273.271,268.6579,276.197,265.9308,276.197,265.9308C276.197,265.9308,249.934,237.749,249.934,237.749C249.934,237.749,247.007,240.476,247.007,240.476C247.007,240.476,247.007,240.476,247.007,240.476ZM284.409,269.2092C284.409,269.2092,315.454,241.8867,315.454,241.8867C315.454,241.8867,312.811,238.88389999999998,312.811,238.88389999999998C312.811,238.88389999999998,281.766,266.20640000000003,281.766,266.20640000000003C281.766,266.20640000000003,284.409,269.2092,284.409,269.2092C284.409,269.2092,284.409,269.2092,284.409,269.2092ZM319.793,241.2671C319.793,241.2671,322.497,242.5336,322.497,242.5336C322.497,242.5336,324.194,238.91129999999998,324.194,238.91129999999998C324.194,238.91129999999998,321.49,237.6447,321.49,237.6447C321.49,237.6447,319.793,241.2671,319.793,241.2671C319.793,241.2671,319.793,241.2671,319.793,241.2671ZM332.206,240.1991C332.206,240.1991,351.741,215.07211,351.741,215.07211C351.741,215.07211,348.583,212.61701,348.583,212.61701C348.583,212.61701,329.049,237.744,329.049,237.744C329.049,237.744,332.206,240.1991,332.206,240.1991C332.206,240.1991,332.206,240.1991,332.206,240.1991ZM357.435,214.43365C357.435,214.43365,358.732,215.49703,358.732,215.49703C358.732,215.49703,361.268,212.40349,361.268,212.40349C361.268,212.40349,359.971,211.34011,359.971,211.34011C359.971,211.34011,357.435,214.43365,357.435,214.43365C357.435,214.43365,357.435,214.43365,357.435,214.43365ZM114.187,208.95119C115.564,209.2521,117.014,210.52834000000001,118.528,213.38912C120.008,216.1871,121.309,220.0437,122.623,224.6621C125.21,233.7494,127.801,245.6606,131.935,256.3868C131.935,256.3868,135.667,254.9484,135.667,254.9484C131.617,244.4405,129.159,233.0097,126.471,223.5669C125.148,218.9202,123.754,214.71477,122.063,211.5187C120.406,208.38542,118.209,205.735594,115.041,205.04342C115.041,205.04342,114.187,208.95119,114.187,208.95119C114.187,208.95119,114.187,208.95119,114.187,208.95119ZM131.935,256.3868C134.765,263.7298,136.931,269.6094,139.251,273.8184C141.602,278.0838,144.336,281.06399999999996,148.509,282.1008C148.509,282.1008,149.474,278.2188,149.474,278.2188C146.873,277.5727,144.874,275.734,142.754,271.8877C140.603,267.9849,138.562,262.4598,135.667,254.9484C135.667,254.9484,131.935,256.3868,131.935,256.3868C131.935,256.3868,131.935,256.3868,131.935,256.3868ZM78.4744,245.7635C80.6681,247.6429,82.9438,248.6176,85.2755,248.3136C87.565,248.015,89.3735,246.5485,90.8067,244.7791C93.6212,241.3046,95.8872,235.5024,98.0757,229.877C100.339,224.0595,102.575,218.2579,105.327,214.12704C108.084,209.98885,110.862,208.22442,114.187,208.95119C114.187,208.95119,115.041,205.04342,115.041,205.04342C109.23,203.77337,105.041,207.342624,101.998,211.90913C98.9506,216.48298,96.5536,222.757,94.3479,228.42680000000001C92.0674,234.2886,90.0284,239.3852,87.6985,242.2614C86.5596,243.6674,85.5861,244.23919999999998,84.7583,244.3471C83.9729,244.4496,82.7962,244.1988,81.0768,242.7258C81.0768,242.7258,78.4744,245.7635,78.4744,245.7635C78.4744,245.7635,78.4744,245.7635,78.4744,245.7635ZM351.741,215.07211C353.122,213.29613,355.695,213.00758,357.435,214.43366C357.435,214.43366,359.971,211.3401,359.971,211.3401C356.491,208.48798,351.345,209.06506,348.583,212.61701C348.583,212.61701,351.741,215.07211,351.741,215.07211C351.741,215.07211,351.741,215.07211,351.741,215.07211ZM315.454,241.8867C316.648,240.8355,318.352,240.59210000000002,319.793,241.2671C319.793,241.2671,321.49,237.6447,321.49,237.6447C318.608,236.29489999999998,315.2,236.7815,312.811,238.88389999999998C312.811,238.88389999999998,315.454,241.8867,315.454,241.8867C315.454,241.8867,315.454,241.8867,315.454,241.8867ZM273.271,268.6579C276.223,271.8252,281.159,272.0696,284.409,269.2092C284.409,269.2092,281.766,266.20640000000003,281.766,266.20640000000003C280.141,267.6366,277.673,267.5145,276.197,265.9308C276.197,265.9308,273.271,268.6579,273.271,268.6579C273.271,268.6579,273.271,268.6579,273.271,268.6579ZM242.264,239.6398C243.854,238.8286,245.79,239.1698,247.007,240.4761C247.007,240.4761,249.934,237.749,249.934,237.749C247.499,235.1365,243.628,234.454,240.446,236.0765C240.446,236.0765,242.264,239.6398,242.264,239.6398C242.264,239.6398,242.264,239.6398,242.264,239.6398ZM227.191,238.6755C229.286,242.4358,233.98,243.8646,237.815,241.909C237.815,241.909,235.997,238.3457,235.997,238.3457C234.08,239.3235,231.733,238.6091,230.685,236.7289C230.685,236.7289,227.191,238.6755,227.191,238.6755C227.191,238.6755,227.191,238.6755,227.191,238.6755ZM207.625,215.15245C209.356,212.82019,212.918,213.05256,214.331,215.59002C214.331,215.59002,217.826,213.64344,217.826,213.64344C214.998,208.56852,207.876,208.10376,204.413,212.76830999999999C204.413,212.76830999999999,207.625,215.15245,207.625,215.15245C207.625,215.15245,207.625,215.15245,207.625,215.15245ZM185.823,238.4485C185.799,238.48160000000001,185.753,238.4898,185.718,238.4671C185.718,238.4671,187.911,235.1222,187.911,235.1222C186.177,233.9847,183.856,234.3947,182.617,236.0576C182.617,236.0576,185.823,238.4485,185.823,238.4485C185.823,238.4485,185.823,238.4485,185.823,238.4485ZM152.174,276.8908C151.331,278.02160000000003,150.26,278.414,149.474,278.2188C149.474,278.2188,148.509,282.1008,148.509,282.1008C151.401,282.8191,153.959,281.1887,155.381,279.2817C155.381,279.2817,152.174,276.8908,152.174,276.8908C152.174,276.8908,152.174,276.8908,152.174,276.8908ZM185.718,238.4671C187.455,239.6063,189.779,239.1932,191.018,237.5251C191.018,237.5251,187.806,235.1409,187.806,235.1409C187.831,235.1077,187.877,235.0995,187.911,235.1222C187.911,235.1222,185.718,238.4671,185.718,238.4671C185.718,238.4671,185.718,238.4671,185.718,238.4671ZM322.497,242.5336C325.882,244.1188,329.913,243.1496,332.206,240.1991C332.206,240.1991,329.049,237.744,329.049,237.744C327.902,239.2193,325.886,239.7039,324.194,238.91129999999998C324.194,238.91129999999998,322.497,242.5336,322.497,242.5336C322.497,242.5336,322.497,242.5336,322.497,242.5336ZM38.1182,266.7151C41.9058,268.38530000000003,46.2583,266.8978,48.4592,263.5467C48.4592,263.5467,45.1159,261.3509,45.1159,261.3509C43.9155,263.1786,41.6135,263.8848,39.732,263.0551C39.732,263.0551,38.1182,266.7151,38.1182,266.7151C38.1182,266.7151,38.1182,266.7151,38.1182,266.7151Z" fill="url(#master_svg4__4195)" fill-opacity="1"/></g></g></g></svg>