<svg xmlns="http://www.w3.org/2000/svg" xmlns:xlink="http://www.w3.org/1999/xlink" fill="none" version="1.1" width="745" height="355.9364318847656" viewBox="0 0 745 355.9364318847656"><defs><clipPath id="master_svg0_0_3694"><rect x="0" y="0" width="745" height="355.9364318847656" rx="20"/></clipPath><clipPath id="master_svg1_0_3698"><rect x="677" y="25" width="43" height="43" rx="7"/></clipPath></defs><g clip-path="url(#master_svg0_0_3694)"><rect x="0" y="0" width="745" height="355.9364318847656" rx="20" fill="#FFFFFF" fill-opacity="1"/><g><g><path d="M39.4023,51.760904107666015Q39.4023,50.35470410766602,38.4531,49.428904107666014Q37.5039,48.50310410766602,35.2891,47.741404107666014Q33.07422,46.96800410766602,31.84375,46.31170410766602Q27.74219,44.16720410766602,27.74219,39.948404107666015Q27.74219,37.089004107666014,29.51172,35.24921410766601Q31.29297,33.39764410766602,34.33984,33.057804107666016L34.33984,29.225774107666016L37.1523,29.225774107666016L37.1523,33.057804107666016Q40.2109,33.49139410766602,41.875,35.60077410766601Q43.550799999999995,37.698404107666015,43.550799999999995,41.06170410766602L39.2969,41.06170410766602Q39.2969,38.94060410766602,38.3008,37.72190410766601Q37.3047,36.49139410766602,35.6055,36.49139410766602Q33.91797,36.49139410766602,32.96875,37.38200410766601Q32.01953,38.260904107666015,32.01953,39.90160410766602Q32.01953,41.37810410766602,32.95703,42.26870410766602Q33.89453,43.15940410766602,36.1445,43.95620410766601Q38.3945,44.75310410766602,39.6719,45.44450410766602Q40.9609,46.12420410766602,41.8398,47.014804107666016Q42.7188,47.89370410766601,43.1875,49.04220410766602Q43.668,50.19060410766602,43.668,51.73750410766601Q43.668,54.63200410766602,41.851600000000005,56.43670410766602Q40.0352,58.22970410766602,36.7773,58.557804107666016L36.7773,61.96800410766602L33.98828,61.96800410766602L33.98828,58.557804107666016Q30.50781,58.182804107666016,28.63281,56.13200410766602Q26.75781,54.06950410766602,26.75781,50.682804107666016L31.03516,50.682804107666016Q31.03516,52.79220410766602,32.14844,53.952304107666016Q33.26172,55.11250410766601,35.3008,55.11250410766601Q37.3047,55.11250410766601,38.3477,54.198404107666015Q39.4023,53.28440410766602,39.4023,51.760904107666015ZM63.2852,39.83120410766602Q63.2852,41.62420410766602,62.3125,43.03050410766602Q61.3516,44.42500410766601,59.6875,45.23360410766601Q61.6914,46.14760410766601,62.7695,47.741404107666014Q63.8477,49.33510410766601,63.8477,51.339004107666014Q63.8477,54.66720410766602,61.5625,56.61250410766601Q59.2773,58.557804107666016,55.4805,58.557804107666016Q51.6719,58.557804107666016,49.375,56.600804107666015Q47.0781,54.64370410766601,47.0781,51.339004107666014Q47.0781,49.31170410766602,48.168,47.70620410766601Q49.2578,46.100804107666015,51.226600000000005,45.23360410766601Q49.574200000000005,44.42500410766601,48.613299999999995,43.03050410766602Q47.664100000000005,41.62420410766602,47.664100000000005,39.83120410766602Q47.664100000000005,36.714004107666014,49.773399999999995,34.885924107666014Q51.8828,33.057804107666016,55.4688,33.057804107666016Q59.0664,33.057804107666016,61.1758,34.885924107666014Q63.2852,36.714004107666014,63.2852,39.83120410766602ZM59.582,51.116404107666014Q59.582,49.264804107666016,58.4453,48.12810410766602Q57.3086,46.991404107666014,55.4453,46.991404107666014Q53.582,46.991404107666014,52.4688,48.12810410766602Q51.3555,49.25310410766602,51.3555,51.116404107666014Q51.3555,52.95620410766601,52.4453,54.057804107666016Q53.5469,55.14760410766601,55.4805,55.14760410766601Q57.4141,55.14760410766601,58.4922,54.09300410766602Q59.582,53.02660410766602,59.582,51.116404107666014ZM59.0312,40.03050410766602Q59.0312,38.48360410766602,58.0586,37.48750410766601Q57.0977,36.49139410766602,55.457,36.49139410766602Q53.8281,36.49139410766602,52.8789,37.44060410766602Q51.9297,38.389804107666016,51.9297,40.03050410766602Q51.9297,41.64760410766601,52.8906,42.60860410766601Q53.851600000000005,43.557804107666016,55.4805,43.557804107666016Q57.1211,43.557804107666016,58.0703,42.60860410766601Q59.0312,41.64760410766601,59.0312,40.03050410766602ZM79.5273,47.71800410766602Q77.3828,49.89760410766601,74.52340000000001,49.89760410766601Q71.14840000000001,49.89760410766601,69.1445,47.62420410766602Q67.1406,45.350804107666015,67.1406,41.64760410766601Q67.1406,39.21010410766601,68.1602,37.241404107666014Q69.1797,35.260924107666014,71.0547,34.159364107666015Q72.9414,33.057804107666016,75.41409999999999,33.057804107666016Q79.2812,33.057804107666016,81.543,35.88202410766601Q83.8164,38.70620410766602,83.8164,43.428904107666014L83.8164,44.600804107666015Q83.8164,51.385904107666015,80.6875,54.948404107666015Q77.5586,58.510904107666015,71.3594,58.557804107666016L70.8438,58.557804107666016L70.8438,55.01870410766601L71.4648,55.01870410766601Q75.23830000000001,54.96010410766601,77.2539,53.19060410766602Q79.2812,51.42110410766601,79.5273,47.71800410766602ZM75.41409999999999,46.557804107666016Q76.7031,46.557804107666016,77.8281,45.866404107666014Q78.9531,45.17500410766601,79.5625,43.95620410766601L79.5625,42.385904107666015Q79.5625,39.73750410766601,78.4023,38.120304107666016Q77.2422,36.503114107666015,75.3906,36.503114107666015Q73.55080000000001,36.503114107666015,72.44919999999999,37.932804107666016Q71.3594,39.350804107666015,71.3594,41.53050410766602Q71.3594,43.79220410766602,72.46090000000001,45.17500410766601Q73.57419999999999,46.557804107666016,75.41409999999999,46.557804107666016ZM104.3477,47.764804107666016Q104.3477,53.120304107666016,102.2852,55.839004107666014Q100.2227,58.557804107666016,96.0039,58.557804107666016Q91.8555,58.557804107666016,89.7461,55.90940410766602Q87.64840000000001,53.260904107666015,87.60159999999999,48.057804107666016L87.60159999999999,43.75700410766602Q87.60159999999999,38.413304107666015,89.6641,35.74139410766602Q91.7266,33.057804107666016,95.9688,33.057804107666016Q100.1641,33.057804107666016,102.2266,35.67108410766602Q104.3008,38.27260410766601,104.3477,43.475804107666015L104.3477,47.764804107666016ZM100.082,43.15940410766602Q100.082,39.714004107666014,99.0977,38.10860410766602Q98.1133,36.49139410766602,95.9688,36.49139410766602Q93.8711,36.49139410766602,92.8867,38.014804107666016Q91.9023,39.538304107666015,91.8555,42.77260410766601L91.8555,48.339004107666014Q91.8555,51.77260410766601,92.8516,53.46010410766601Q93.8594,55.14760410766601,96.0039,55.14760410766601Q98.0547,55.14760410766601,99.0391,53.589004107666014Q100.0234,52.03050410766602,100.082,48.714004107666014L100.082,43.15940410766602ZM110.8516,53.85860410766601Q112.0469,53.85860410766601,112.6914,54.538304107666015Q113.3477,55.21800410766602,113.3477,56.23750410766601Q113.3477,57.23360410766601,112.6914,57.90160410766602Q112.0469,58.557804107666016,110.8516,58.557804107666016Q109.7148,58.557804107666016,109.0469,57.913304107666015Q108.3789,57.25700410766602,108.3789,56.23750410766601Q108.3789,55.21800410766602,109.0234,54.538304107666015Q109.6797,53.85860410766601,110.8516,53.85860410766601ZM129.777,47.71800410766602Q127.633,49.89760410766601,124.7734,49.89760410766601Q121.3984,49.89760410766601,119.3945,47.62420410766602Q117.3906,45.350804107666015,117.3906,41.64760410766601Q117.3906,39.21010410766601,118.4102,37.241404107666014Q119.4297,35.260924107666014,121.3047,34.159364107666015Q123.1914,33.057804107666016,125.664,33.057804107666016Q129.531,33.057804107666016,131.793,35.88202410766601Q134.066,38.70620410766602,134.066,43.428904107666014L134.066,44.600804107666015Q134.066,51.385904107666015,130.938,54.948404107666015Q127.809,58.510904107666015,121.6094,58.557804107666016L121.0938,58.557804107666016L121.0938,55.01870410766601L121.7148,55.01870410766601Q125.488,54.96010410766601,127.504,53.19060410766602Q129.531,51.42110410766601,129.777,47.71800410766602ZM125.664,46.557804107666016Q126.953,46.557804107666016,128.078,45.866404107666014Q129.203,45.17500410766601,129.812,43.95620410766601L129.812,42.385904107666015Q129.812,39.73750410766601,128.652,38.120304107666016Q127.492,36.503114107666015,125.641,36.503114107666015Q123.8008,36.503114107666015,122.6992,37.932804107666016Q121.6094,39.350804107666015,121.6094,41.53050410766602Q121.6094,43.79220410766602,122.7109,45.17500410766601Q123.8242,46.557804107666016,125.664,46.557804107666016ZM142.85500000000002,43.557804107666016L145.457,43.557804107666016Q147.426,43.54610410766601,148.574,42.63200410766602Q149.73399999999998,41.71800410766602,149.73399999999998,39.995304107666016Q149.73399999999998,38.33120410766602,148.773,37.41720410766602Q147.812,36.49139410766602,145.844,36.49139410766602Q144.12099999999998,36.49139410766602,143.00799999999998,37.48750410766601Q141.906,38.48360410766602,141.906,40.077304107666016L137.64100000000002,40.077304107666016Q137.64100000000002,38.10860410766602,138.684,36.49139410766602Q139.727,34.87421410766601,141.602,33.971864107666015Q143.477,33.057804107666016,145.797,33.057804107666016Q149.62900000000002,33.057804107666016,151.809,34.885924107666014Q154,36.702304107666016,154,39.93670410766602Q154,41.56560410766602,152.898,43.00700410766602Q151.809,44.448404107666015,150.062,45.17500410766601Q152.172,45.889804107666016,153.273,47.42500410766601Q154.375,48.96010410766601,154.375,51.09300410766602Q154.375,54.514804107666016,152.00799999999998,56.54220410766602Q149.64100000000002,58.557804107666016,145.797,58.557804107666016Q142.10500000000002,58.557804107666016,139.75,56.589004107666014Q137.39499999999998,54.620304107666016,137.39499999999998,51.350804107666015L141.66,51.350804107666015Q141.66,53.038304107666015,142.797,54.09300410766602Q143.934,55.14760410766601,145.844,55.14760410766601Q147.836,55.14760410766601,148.973,54.10470410766602Q150.12099999999998,53.06170410766602,150.12099999999998,51.08120410766601Q150.12099999999998,49.089004107666014,148.926,48.010904107666015Q147.73000000000002,46.932804107666016,145.375,46.932804107666016L142.85500000000002,46.932804107666016L142.85500000000002,43.557804107666016Z" fill="#000000" fill-opacity="1"/></g><g clip-path="url(#master_svg1_0_3698)"><rect x="677" y="25" width="43" height="43" rx="7" fill="#F4F7FE" fill-opacity="1"/><g><path d="M690.9,42.7C690.9,42.7,691.17143,42.7,691.17143,42.7C692.21643,42.7,693.07143,43.555,693.07143,44.6C693.07143,44.6,693.07143,54.1,693.07143,54.1C693.07143,55.144999999999996,692.21643,56,691.17143,56C691.17143,56,690.9,56,690.9,56C689.855,56,689,55.144999999999996,689,54.1C689,54.1,689,44.6,689,44.6C689,43.555,689.855,42.7,690.9,42.7C690.9,42.7,690.9,42.7,690.9,42.7ZM698.5,37C699.545,37,700.4,37.855,700.4,38.9C700.4,38.9,700.4,54.1,700.4,54.1C700.4,55.144999999999996,699.545,56,698.5,56C697.455,56,696.6,55.144999999999996,696.6,54.1C696.6,54.1,696.6,38.9,696.6,38.9C696.6,37.855,697.455,37,698.5,37C698.5,37,698.5,37,698.5,37ZM706.1,47.8571C707.145,47.8571,708,48.7121,708,49.7571C708,49.7571,708,54.1,708,54.1C708,55.144999999999996,707.145,56,706.1,56C705.055,56,704.2,55.144999999999996,704.2,54.1C704.2,54.1,704.2,49.7571,704.2,49.7571C704.2,48.7121,705.055,47.8571,706.1,47.8571C706.1,47.8571,706.1,47.8571,706.1,47.8571Z" fill="#000000" fill-opacity="1"/></g></g></g><g><g><g><line x1="25" y1="136.49997234344482" x2="685" y2="136.49997234344482" fill-opacity="0" stroke-opacity="1" stroke="#4361EE" fill="none" stroke-width="3" stroke-dasharray="7 6"/></g><g><path d="M697.05859,133.5L699.25,139.6641L701.42969,133.5L703.73828,133.5L703.73828,142L701.97656,142L701.97656,139.6758L702.15234,135.66406L699.84766,142L698.64062,142L696.34375,135.67188L696.51953,139.6758L696.51953,142L694.761719,142L694.761719,133.5L697.05859,133.5ZM709.8381,140.1758L706.7561,140.1758L706.1702,142L704.303,142L707.4788,133.5L709.1077,133.5L712.2991,142L710.4319,142L709.8381,140.1758ZM707.2327,138.75L709.3655,138.75L708.2913,135.64844L707.2327,138.75ZM715.8364,136.42969L717.4341,133.5L719.4575,133.5L716.9731,137.71484L719.52,142L717.477,142L715.8364,139.0234L714.1958,142L712.1489,142L714.6997,137.71484L712.2153,133.5L714.2348,133.5L715.8364,136.42969Z" fill="#000000" fill-opacity="1"/></g></g><g><g><rect x="25" y="251" width="39.070335388183594" height="58" rx="8" fill="#E9E9E9" fill-opacity="1"/></g><g><rect x="84.62997436523438" y="167" width="39.0703125" height="142" rx="8" fill="#E9E9E9" fill-opacity="1"/></g><g><rect x="144.25992584228516" y="211" width="39.0703125" height="98" rx="8" fill="#E9E9E9" fill-opacity="1"/></g><g><rect x="203.88987731933594" y="197" width="39.070335388183594" height="112" rx="8" fill="#E9E9E9" fill-opacity="1"/></g><g><rect x="263.5198516845703" y="219" width="39.070350646972656" height="90" rx="8" fill="#E9E9E9" fill-opacity="1"/></g><g><rect x="323.14984130859375" y="148" width="39.0703125" height="161" rx="8" fill="#4361EE" fill-opacity="1"/></g><g><rect x="382.77978515625" y="231" width="39.0703125" height="78" rx="8" fill="#E9E9E9" fill-opacity="1"/></g><g><rect x="442.40972900390625" y="167" width="39.0703125" height="142" rx="8" fill="#E9E9E9" fill-opacity="1"/></g><g><rect x="502.0396728515625" y="270" width="39.0703125" height="39" rx="8" fill="#E9E9E9" fill-opacity="1"/></g><g><rect x="561.6696166992188" y="197" width="39.070350646972656" height="112" rx="8" fill="#E9E9E9" fill-opacity="1"/></g><g><rect x="621.2996215820312" y="246" width="39.070350646972656" height="63" rx="8" fill="#E9E9E9" fill-opacity="1"/></g><g><rect x="680.9296264648438" y="211" width="39.070350646972656" height="98" rx="8" fill="#E9E9E9" fill-opacity="1"/></g></g><g><g><path d="M37.786500000000004,324.25C39.5013,324.25,40.2084,323.0391,40.2084,321.5039L40.2084,315.25L39.0951,315.25L39.0951,321.3945C39.0951,322.7383,38.6263,323.2812,37.677099999999996,323.2812C37.0404,323.2812,36.5482,322.9883,36.1537,322.2773L35.3607,322.8555C35.8763,323.7734,36.6693,324.25,37.786500000000004,324.25ZM43.8043,324.25C44.609,324.25,45.3395,323.832,45.9645,323.3125L45.9996,323.3125L46.097300000000004,324L46.9957,324L46.9957,319.9492C46.9957,318.30859,46.3356,317.25,44.7418,317.25C43.6832,317.25,42.7731,317.71875,42.1832,318.10547L42.6051,318.86719C43.1207,318.51562,43.8043,318.16406,44.5621,318.16406C45.6285,318.16406,45.9059,318.97656,45.9059,319.8281C43.132400000000004,320.1406,41.909800000000004,320.8594,41.909800000000004,322.2891C41.909800000000004,323.5781,42.7145,324.25,43.8043,324.25ZM44.1168,323.3633C43.4684,323.3633,42.9645,323.0664,42.9645,322.3008C42.9645,321.4336,43.7106,320.875,45.9059,320.6172L45.9059,322.4844C45.2692,323.0664,44.7418,323.3633,44.1168,323.3633ZM48.8143,324L49.919799999999995,324L49.919799999999995,319.2188C50.568200000000004,318.55078,51.0213,318.21094,51.693200000000004,318.21094C52.5604,318.21094,52.9315,318.73438,52.9315,319.9727L52.9315,324L54.0252,324L54.0252,319.8281C54.0252,318.15234,53.4002,317.25,52.033100000000005,317.25C51.142399999999995,317.25,50.4588,317.74219,49.845600000000005,318.37109L49.8221,318.37109L49.7167,317.5L48.8143,317.5L48.8143,324Z" fill="#525252" fill-opacity="1"/></g><g><path d="M95.45773900146484,324L96.55923900146485,324L96.55923900146485,320L99.92253900146484,320L99.92253900146484,319.0664L96.55923900146485,319.0664L96.55923900146485,316.1875L100.52023900146484,316.1875L100.52023900146484,315.25L95.45773900146484,315.25L95.45773900146484,324ZM104.49893900146485,324.25C105.37393900146485,324.25,106.07323900146484,323.9648,106.63573900146484,323.5938L106.25283900146485,322.8398C105.76073900146484,323.1758,105.25673900146484,323.375,104.62003900146485,323.375C103.38173900146484,323.375,102.53023900146485,322.4531,102.45993900146485,321L106.85053900146485,321C106.87393900146485,320.832,106.90133900146485,320.6172,106.90133900146485,320.3789C106.90133900146485,318.46094,105.96383900146485,317.25,104.29583900146484,317.25C102.80753900146485,317.25,101.37783900146485,318.57422,101.37783900146485,320.75C101.37783900146485,322.9766,102.76073900146484,324.25,104.49893900146485,324.25ZM102.44823900146484,320.2227C102.57713900146484,318.88281,103.39353900146484,318.12891,104.31923900146484,318.12891C105.33883900146485,318.12891,105.94033900146485,318.85938,105.94033900146485,320.2227L102.44823900146484,320.2227ZM111.23553900146484,324.25C112.72383900146484,324.25,114.06753900146484,322.957,114.06753900146484,320.6523C114.06753900146484,318.57422,113.15743900146484,317.25,111.47773900146484,317.25C110.74333900146485,317.25,110.02463900146485,317.66016,109.42693900146485,318.16406L109.47383900146484,317L109.47383900146484,314.38281L108.36833900146485,314.38281L108.36833900146485,324L109.24333900146485,324L109.34103900146485,323.4258L109.38783900146484,323.4258C109.95423900146484,323.9414,110.63783900146484,324.25,111.23553900146484,324.25ZM111.05583900146485,323.3281C110.62613900146485,323.3281,110.03633900146484,323.1562,109.47383900146484,322.6328L109.47383900146484,319.0938C110.08323900146485,318.5,110.66133900146484,318.17578,111.20033900146484,318.17578C112.45033900146484,318.17578,112.93083900146485,319.168,112.93083900146485,320.6641C112.93083900146485,322.3242,112.13783900146484,323.3281,111.05583900146485,323.3281Z" fill="#525252" fill-opacity="1"/></g><g><path d="M154.8867780029297,324L155.8828780029297,324L155.8828780029297,319.1562C155.8828780029297,318.40625,155.8086780029297,317.34766,155.7382780029297,316.58594L155.78517800292968,316.58594L156.49227800292968,318.57422L158.1640780029297,323.1211L158.9062780029297,323.1211L160.56257800292968,318.57422L161.26957800292968,316.58594L161.3203780029297,316.58594C161.2578780029297,317.34766,161.1757780029297,318.40625,161.1757780029297,319.1562L161.1757780029297,324L162.20707800292968,324L162.20707800292968,315.25L160.87507800292968,315.25L159.1953780029297,319.9297C158.99227800292968,320.5273,158.8086780029297,321.1445,158.58207800292968,321.75L158.53517800292968,321.75C158.3164780029297,321.1445,158.12507800292968,320.5273,157.8984780029297,319.9297L156.2187780029297,315.25L154.8867780029297,315.25L154.8867780029297,324ZM165.7873780029297,324.25C166.5920780029297,324.25,167.32257800292967,323.832,167.94757800292967,323.3125L167.98267800292967,323.3125L168.08037800292968,324L168.9787780029297,324L168.9787780029297,319.9492C168.9787780029297,318.30859,168.3186780029297,317.25,166.7248780029297,317.25C165.6662780029297,317.25,164.7561780029297,317.71875,164.1662780029297,318.10547L164.58817800292968,318.86719C165.1037780029297,318.51562,165.7873780029297,318.16406,166.54517800292967,318.16406C167.6115780029297,318.16406,167.8889780029297,318.97656,167.8889780029297,319.8281C165.11547800292968,320.1406,163.89287800292968,320.8594,163.89287800292968,322.2891C163.89287800292968,323.5781,164.69757800292967,324.25,165.7873780029297,324.25ZM166.0998780029297,323.3633C165.4514780029297,323.3633,164.94757800292967,323.0664,164.94757800292967,322.3008C164.94757800292967,321.4336,165.6936780029297,320.875,167.8889780029297,320.6172L167.8889780029297,322.4844C167.2522780029297,323.0664,166.7248780029297,323.3633,166.0998780029297,323.3633ZM170.7973780029297,324L171.9028780029297,324L171.9028780029297,319.7656C172.3325780029297,318.64844,172.9926780029297,318.23438,173.5356780029297,318.23438C173.80907800292968,318.23438,173.95367800292968,318.27344,174.1684780029297,318.34375L174.3754780029297,317.5C174.1684780029297,317.28906,173.9653780029297,317.25,173.67627800292968,317.25C172.9575780029297,317.25,172.2856780029297,317.78125,171.82867800292968,318.61328L171.8051780029297,318.61328L171.6997780029297,317.5L170.7973780029297,317.5L170.7973780029297,324Z" fill="#525252" fill-opacity="1"/></g><g><path d="M214.151709375,324L215.268909375,324L216.120509375,321.3789L219.335309375,321.3789L220.175209375,324L221.35090937500001,324L218.362709375,315.25L217.12830937500001,315.25L214.151709375,324ZM216.393909375,320.5L216.827509375,319.1406C217.140009375,318.14062,217.429109375,317.1875,217.702509375,316.15234L217.749409375,316.15234C218.03840937500001,317.17578,218.31580937500001,318.14062,218.640009375,319.1406L219.058009375,320.5L216.393909375,320.5ZM222.216409375,326.75L223.321909375,326.75L223.321909375,324.6211L223.286709375,323.4961C223.872709375,323.9883,224.497709375,324.25,225.083609375,324.25C226.571909375,324.25,227.915609375,322.957,227.915609375,320.6523C227.915609375,318.57422,227.005509375,317.25,225.325809375,317.25C224.568009375,317.25,223.837509375,317.68359,223.247709375,318.17578L223.224209375,318.17578L223.118809375,317.5L222.216409375,317.5L222.216409375,326.75ZM224.903909375,323.3281C224.474209375,323.3281,223.896109375,323.1562,223.321909375,322.6484L223.321909375,319.0938C223.946909375,318.5,224.509409375,318.17578,225.048409375,318.17578C226.298409375,318.17578,226.778909375,319.168,226.778909375,320.6641C226.778909375,322.3438,225.985909375,323.3281,224.903909375,323.3281ZM229.476409375,324L230.581909375,324L230.581909375,319.7656C231.011609375,318.64844,231.671709375,318.23438,232.214709375,318.23438C232.488109375,318.23438,232.632709375,318.27344,232.84750937500002,318.34375L233.054509375,317.5C232.84750937500002,317.28906,232.644409375,317.25,232.355309375,317.25C231.636609375,317.25,230.964709375,317.78125,230.507709375,318.61328L230.484209375,318.61328L230.378809375,317.5L229.476409375,317.5L229.476409375,324Z" fill="#525252" fill-opacity="1"/></g><g><path d="M273.24487126464845,324L274.24097126464846,324L274.24097126464846,319.1562C274.24097126464846,318.40625,274.16677126464845,317.34766,274.0964712646484,316.58594L274.14327126464843,316.58594L274.85037126464846,318.57422L276.5221712646484,323.1211L277.26437126464845,323.1211L278.92067126464843,318.57422L279.6276712646484,316.58594L279.67847126464846,316.58594C279.61597126464846,317.34766,279.5339712646484,318.40625,279.5339712646484,319.1562L279.5339712646484,324L280.5651712646484,324L280.5651712646484,315.25L279.23317126464843,315.25L277.55347126464846,319.9297C277.35037126464846,320.5273,277.16677126464845,321.1445,276.9401712646484,321.75L276.89327126464843,321.75C276.6745712646484,321.1445,276.48317126464843,320.5273,276.2565712646484,319.9297L274.57687126464845,315.25L273.24487126464845,315.25L273.24487126464845,324ZM284.14547126464845,324.25C284.9501712646484,324.25,285.6806712646484,323.832,286.3056712646484,323.3125L286.3407712646484,323.3125L286.43847126464846,324L287.33687126464844,324L287.33687126464844,319.9492C287.33687126464844,318.30859,286.67677126464844,317.25,285.08297126464845,317.25C284.02437126464844,317.25,283.11427126464844,317.71875,282.52437126464844,318.10547L282.94627126464843,318.86719C283.46187126464844,318.51562,284.14547126464845,318.16406,284.9032712646484,318.16406C285.9696712646484,318.16406,286.2470712646484,318.97656,286.2470712646484,319.8281C283.47357126464846,320.1406,282.25097126464846,320.8594,282.25097126464846,322.2891C282.25097126464846,323.5781,283.0556712646484,324.25,284.14547126464845,324.25ZM284.45797126464845,323.3633C283.8095712646484,323.3633,283.3056712646484,323.0664,283.3056712646484,322.3008C283.3056712646484,321.4336,284.05177126464844,320.875,286.2470712646484,320.6172L286.2470712646484,322.4844C285.61037126464845,323.0664,285.08297126464845,323.3633,284.45797126464845,323.3633ZM289.26487126464843,326.75C290.5617712646484,326.75,291.24537126464844,325.7695,291.69847126464845,324.5078L294.14767126464847,317.5L293.0812712646484,317.5L291.90547126464844,321.082C291.73747126464843,321.6641,291.54607126464845,322.3203,291.3781712646484,322.9141L291.3156712646484,322.9141C291.08907126464845,322.3086,290.87037126464844,321.6523,290.66717126464846,321.082L289.3468712646484,317.5L288.2062712646484,317.5L290.82347126464845,323.9727L290.67897126464845,324.4609C290.40547126464844,325.2578,289.94847126464845,325.8516,289.21797126464844,325.8516C289.0343712646484,325.8516,288.84297126464844,325.793,288.71017126464847,325.7461L288.49537126464844,326.6211C288.69847126464845,326.7031,288.96407126464845,326.75,289.26487126464843,326.75Z" fill="#525252" fill-opacity="1"/></g><g><path d="M335.30673315429686,324.25C337.0215331542969,324.25,337.72863315429686,323.0391,337.72863315429686,321.5039L337.72863315429686,315.25L336.6153331542969,315.25L336.6153331542969,321.3945C336.6153331542969,322.7383,336.1465331542969,323.2812,335.19733315429687,323.2812C334.56063315429685,323.2812,334.0684331542969,322.9883,333.6739331542969,322.2773L332.8809331542969,322.8555C333.3965331542969,323.7734,334.1895331542969,324.25,335.30673315429686,324.25ZM341.73473315429686,324.25C342.6214331542969,324.25,343.26983315429686,323.7852,343.8831331542969,323.0742L343.9183331542969,323.0742L344.00033315429687,324L344.9144331542969,324L344.9144331542969,317.5L343.8206331542969,317.5L343.8206331542969,322.1836C343.1956331542969,322.9648,342.7308331542969,323.3047,342.0589331542969,323.3047C341.19173315429686,323.3047,340.83233315429686,322.7812,340.83233315429686,321.5508L340.83233315429686,317.5L339.7308331542969,317.5L339.7308331542969,321.6875C339.7308331542969,323.375,340.3519331542969,324.25,341.73473315429686,324.25ZM346.8345331542969,324L347.9400331542969,324L347.9400331542969,319.2188C348.58843315429687,318.55078,349.04153315429687,318.21094,349.71343315429687,318.21094C350.5806331542969,318.21094,350.9517331542969,318.73438,350.9517331542969,319.9727L350.9517331542969,324L352.0455331542969,324L352.0455331542969,319.8281C352.0455331542969,318.15234,351.4205331542969,317.25,350.05333315429687,317.25C349.1626331542969,317.25,348.47903315429687,317.74219,347.86583315429687,318.37109L347.84233315429685,318.37109L347.7369331542969,317.5L346.8345331542969,317.5L346.8345331542969,324Z" fill="#525252" fill-opacity="1"/></g><g><path d="M396.73577978515624,324.25C398.45057978515626,324.25,399.15767978515623,323.0391,399.15767978515623,321.5039L399.15767978515623,315.25L398.04437978515625,315.25L398.04437978515625,321.3945C398.04437978515625,322.7383,397.57557978515626,323.2812,396.62637978515625,323.2812C395.9896797851562,323.2812,395.49747978515626,322.9883,395.10297978515626,322.2773L394.30997978515626,322.8555C394.82557978515626,323.7734,395.61857978515627,324.25,396.73577978515624,324.25ZM403.16377978515624,324.25C404.05047978515626,324.25,404.69887978515624,323.7852,405.3121797851563,323.0742L405.34737978515625,323.0742L405.42937978515624,324L406.34337978515623,324L406.34337978515623,317.5L405.2496797851563,317.5L405.2496797851563,322.1836C404.6246797851563,322.9648,404.15987978515625,323.3047,403.48797978515626,323.3047C402.62077978515623,323.3047,402.26137978515624,322.7812,402.26137978515624,321.5508L402.26137978515624,317.5L401.15987978515625,317.5L401.15987978515625,321.6875C401.15987978515625,323.375,401.78087978515623,324.25,403.16377978515624,324.25ZM409.4158797851562,324.25C409.71667978515626,324.25,409.8963797851562,324.2031,410.0526797851563,324.1562L409.8963797851562,323.3164C409.7752797851563,323.3398,409.7283797851562,323.3398,409.66987978515624,323.3398C409.50187978515623,323.3398,409.36907978515626,323.207,409.36907978515626,322.8711L409.36907978515626,314.54297L408.26357978515625,314.54297L408.26357978515625,322.8008C408.26357978515625,323.7227,408.59947978515623,324.25,409.4158797851562,324.25Z" fill="#525252" fill-opacity="1"/></g><g><path d="M451.4929058984375,324L452.6100958984375,324L453.4616958984375,321.3789L456.6764958984375,321.3789L457.5163958984375,324L458.6920958984375,324L455.7038958984375,315.25L454.4694958984375,315.25L451.4929058984375,324ZM453.7350958984375,320.5L454.1686958984375,319.1406C454.4811958984375,318.14062,454.7702958984375,317.1875,455.0436958984375,316.15234L455.0905958984375,316.15234C455.3795958984375,317.17578,455.6569958984375,318.14062,455.9811958984375,319.1406L456.3991958984375,320.5L453.7350958984375,320.5ZM461.4677958984375,324.25C462.3544958984375,324.25,463.0028958984375,323.7852,463.6161958984375,323.0742L463.6513958984375,323.0742L463.7333958984375,324L464.6473958984375,324L464.6473958984375,317.5L463.5536958984375,317.5L463.5536958984375,322.1836C462.9286958984375,322.9648,462.4638958984375,323.3047,461.7919958984375,323.3047C460.9247958984375,323.3047,460.5653958984375,322.7812,460.5653958984375,321.5508L460.5653958984375,317.5L459.4638958984375,317.5L459.4638958984375,321.6875C459.4638958984375,323.375,460.0848958984375,324.25,461.4677958984375,324.25ZM468.7628958984375,327C470.78239589843747,327,472.0636958984375,325.9805,472.0636958984375,324.8555C472.0636958984375,323.8203,471.2980958984375,323.3516,469.7980958984375,323.3516L468.5128958984375,323.3516C467.6378958984375,323.3516,467.3722958984375,323.0312,467.3722958984375,322.5938C467.3722958984375,322.207,467.5519958984375,321.9766,467.7941958984375,321.7734C468.0792958984375,321.918,468.4386958984375,322,468.7511958984375,322C470.09489589843747,322,471.1417958984375,321.125,471.1417958984375,319.707C471.1417958984375,319.1367,470.9230958984375,318.64844,470.6144958984375,318.34375L471.9464958984375,318.34375L471.9464958984375,317.5L469.6769958984375,317.5C469.4464958984375,317.32422,469.1261958984375,317.25,468.7511958984375,317.25C467.4425958984375,317.25,466.3175958984375,318.15625,466.3175958984375,319.6445C466.3175958984375,320.457,466.7355958984375,321.1211,467.1691958984375,321.4609L467.1691958984375,321.5117C466.8214958984375,321.75,466.4464958984375,322.1758,466.4464958984375,322.6992C466.4464958984375,323.1992,466.7003958984375,323.5352,467.0363958984375,323.7344L467.0363958984375,323.793C466.4230958984375,324.1562,466.0753958984375,324.6992,466.0753958984375,325.2617C466.0753958984375,326.3789,467.1808958984375,327,468.7628958984375,327ZM468.7511958984375,321.2578C468.0089958984375,321.2578,467.3722958984375,320.6328,467.3722958984375,319.6445C467.3722958984375,318.64453,467.9972958984375,318.05469,468.7511958984375,318.05469C469.53239589843747,318.05469,470.1456958984375,318.64453,470.1456958984375,319.6445C470.1456958984375,320.6328,469.5089958984375,321.2578,468.7511958984375,321.2578ZM468.9191958984375,326.2461C467.7316958984375,326.2461,467.0363958984375,325.8008,467.0363958984375,325.1055C467.0363958984375,324.7344,467.2277958984375,324.3359,467.6964958984375,324C467.9855958984375,324.2266,468.2980958984375,324.25,468.5363958984375,324.25L469.6652958984375,324.25C470.5284958984375,324.25,470.9855958984375,324.4531,470.9855958984375,325.0195C470.9855958984375,325.5977,470.1808958984375,326.2461,468.9191958984375,326.2461Z" fill="#525252" fill-opacity="1"/></g><g><path d="M514.5196120117188,324.25C516.3594120117187,324.25,517.5079120117188,323.1445,517.5079120117188,321.7266C517.5079120117188,320.3906,516.7188120117188,319.7812,515.6993120117188,319.3281L514.4493120117188,318.77734C513.7657120117187,318.48438,512.9844120117187,318.15234,512.9844120117187,317.26953C512.9844120117187,316.47656,513.6329120117188,315.97266,514.6289120117187,315.97266C515.4454120117188,315.97266,516.0938120117188,316.29297,516.6329120117188,316.80469L517.2110120117187,316.08594C516.5977120117187,315.44531,515.6719120117187,315,514.6289120117187,315C513.0352120117187,315,511.85551201171876,315.97266,511.85551201171876,317.35547C511.85551201171876,318.66797,512.8282120117187,319.3008,513.6446120117188,319.6562L514.9063120117188,320.2188C515.7461120117188,320.6016,516.3829120117188,320.8945,516.3829120117188,321.8242C516.3829120117188,322.6914,515.6993120117188,323.2812,514.5352120117187,323.2812C513.6211120117188,323.2812,512.7344120117187,322.8398,512.1094120117187,322.168L511.44931201171875,322.9492C512.2071120117188,323.7461,513.2735120117187,324.25,514.5196120117188,324.25ZM521.6272120117187,324.25C522.5022120117187,324.25,523.2014120117187,323.9648,523.7639120117187,323.5938L523.3811120117188,322.8398C522.8889120117187,323.1758,522.3850120117188,323.375,521.7483120117188,323.375C520.5100120117188,323.375,519.6585120117187,322.4531,519.5882120117187,321L523.9788120117188,321C524.0022120117187,320.832,524.0296120117188,320.6172,524.0296120117188,320.3789C524.0296120117188,318.46094,523.0921120117188,317.25,521.4241120117188,317.25C519.9358120117188,317.25,518.5061120117188,318.57422,518.5061120117188,320.75C518.5061120117188,322.9766,519.8889120117187,324.25,521.6272120117187,324.25ZM519.5764120117187,320.2227C519.7054120117187,318.88281,520.5218120117188,318.12891,521.4475120117188,318.12891C522.4671120117188,318.12891,523.0686120117188,318.85938,523.0686120117188,320.2227L519.5764120117187,320.2227ZM525.4966120117188,326.75L526.6021120117188,326.75L526.6021120117188,324.6211L526.5669120117187,323.4961C527.1529120117187,323.9883,527.7779120117187,324.25,528.3638120117188,324.25C529.8521120117188,324.25,531.1958120117188,322.957,531.1958120117188,320.6523C531.1958120117188,318.57422,530.2857120117187,317.25,528.6060120117188,317.25C527.8482120117187,317.25,527.1177120117187,317.68359,526.5279120117187,318.17578L526.5044120117187,318.17578L526.3989120117187,317.5L525.4966120117188,317.5L525.4966120117188,326.75ZM528.1841120117188,323.3281C527.7544120117187,323.3281,527.1763120117188,323.1562,526.6021120117188,322.6484L526.6021120117188,319.0938C527.2271120117188,318.5,527.7896120117188,318.17578,528.3286120117187,318.17578C529.5786120117187,318.17578,530.0591120117188,319.168,530.0591120117188,320.6641C530.0591120117188,322.3438,529.2661120117187,323.3281,528.1841120117188,323.3281Z" fill="#525252" fill-opacity="1"/></g><g><path d="M575.878328125,324.25C578.089228125,324.25,579.636128125,322.4727,579.636128125,319.5977C579.636128125,316.71875,578.089228125,315,575.878328125,315C573.671228125,315,572.124428125,316.71875,572.124428125,319.5977C572.124428125,322.4727,573.671228125,324.25,575.878328125,324.25ZM575.878328125,323.2812C574.296228125,323.2812,573.265028125,321.8359,573.265028125,319.5977C573.265028125,317.35547,574.296228125,315.97266,575.878328125,315.97266C577.464228125,315.97266,578.495528125,317.35547,578.495528125,319.5977C578.495528125,321.8359,577.464228125,323.2812,575.878328125,323.2812ZM583.860928125,324.25C584.638328125,324.25,585.384428125,323.9414,585.970328125,323.4375L585.489828125,322.6719C585.083628125,323.043,584.556228125,323.3398,583.954728125,323.3398C582.755528125,323.3398,581.939128125,322.3125,581.939128125,320.7656C581.939128125,319.2148,582.802328125,318.17578,583.989828125,318.17578C584.493728125,318.17578,584.915628125,318.41016,585.286728125,318.75781L585.841428125,318.01953C585.384428125,317.61328,584.7945281249999,317.25,583.943028125,317.25C582.263328125,317.25,580.810128125,318.52344,580.810128125,320.7656C580.810128125,322.9922,582.130528125,324.25,583.860928125,324.25ZM589.089728125,324.25C589.499828125,324.25,589.929528125,324.1328,590.304528125,324.0117L590.085828125,323.1797C589.870928125,323.2773,589.581928125,323.3633,589.343628125,323.3633C588.585828125,323.3633,588.335828125,322.9023,588.335828125,322.0977L588.335828125,318.39062L590.113128125,318.39062L590.113128125,317.5L588.335828125,317.5L588.335828125,315.66406L587.421728125,315.66406L587.304528125,317.5L586.269428125,317.5625L586.269428125,318.39062L587.242028125,318.39062L587.242028125,322.0586C587.242028125,323.3867,587.710828125,324.25,589.089728125,324.25Z" fill="#525252" fill-opacity="1"/></g><g><path d="M630.8191052734375,324L631.8621052734375,324L631.8621052734375,319.4062C631.8621052734375,318.49219,631.7800052734375,317.5625,631.7292052734375,316.67969L631.7800052734375,316.67969L632.7253052734375,318.48047L635.9324052734376,324L637.0691052734375,324L637.0691052734375,315.25L636.0144052734375,315.25L636.0144052734375,319.8047C636.0144052734375,320.7031,636.1003052734375,321.6914,636.1707052734375,322.5625L636.1121052734375,322.5625L635.1628052734375,320.7617L631.9480052734375,315.25L630.8191052734375,315.25L630.8191052734375,324ZM641.7510052734375,324.25C643.3486052734374,324.25,644.7666052734374,322.9922,644.7666052734374,320.7656C644.7666052734374,318.52344,643.3486052734374,317.25,641.7510052734375,317.25C640.1572052734375,317.25,638.7392052734375,318.52344,638.7392052734375,320.7656C638.7392052734375,322.9922,640.1572052734375,324.25,641.7510052734375,324.25ZM641.7510052734375,323.3398C640.6260052734375,323.3398,639.8682052734375,322.3125,639.8682052734375,320.7656C639.8682052734375,319.2148,640.6260052734375,318.17578,641.7510052734375,318.17578C642.8799052734375,318.17578,643.6494052734375,319.2148,643.6494052734375,320.7656C643.6494052734375,322.3125,642.8799052734375,323.3398,641.7510052734375,323.3398ZM647.6360052734375,324L648.9172052734375,324L651.2219052734375,317.5L650.1438052734375,317.5L648.9055052734375,321.1992C648.7141052734376,321.832,648.4992052734375,322.4922,648.3078052734375,323.1133L648.2453052734375,323.1133C648.0539052734375,322.4922,647.8508052734375,321.832,647.6477052734375,321.1992L646.4211052734375,317.5L645.2805052734375,317.5L647.6360052734375,324Z" fill="#525252" fill-opacity="1"/></g><g><path d="M690.998182421875,324L693.240382421875,324C695.892682421875,324,697.334082421875,322.3633,697.334082421875,319.5977C697.334082421875,316.80859,695.892682421875,315.25,693.193482421875,315.25L690.998182421875,315.25L690.998182421875,324ZM692.099782421875,323.0898L692.099782421875,316.15234L693.095782421875,316.15234C695.173982421875,316.15234,696.193482421875,317.37891,696.193482421875,319.5977C696.193482421875,321.8008,695.173982421875,323.0898,693.095782421875,323.0898L692.099782421875,323.0898ZM701.539382421875,324.25C702.414382421875,324.25,703.113682421875,323.9648,703.676182421875,323.5938L703.293282421875,322.8398C702.801182421875,323.1758,702.297282421875,323.375,701.660482421875,323.375C700.422282421875,323.375,699.570682421875,322.4531,699.500382421875,321L703.890982421875,321C703.914382421875,320.832,703.941782421875,320.6172,703.941782421875,320.3789C703.941782421875,318.46094,703.004282421875,317.25,701.336282421875,317.25C699.847982421875,317.25,698.418282421875,318.57422,698.418282421875,320.75C698.418282421875,322.9766,699.801182421875,324.25,701.539382421875,324.25ZM699.488682421875,320.2227C699.617582421875,318.88281,700.433982421875,318.12891,701.359782421875,318.12891C702.379282421875,318.12891,702.980782421875,318.85938,702.980782421875,320.2227L699.488682421875,320.2227ZM707.979082421875,324.25C708.756482421875,324.25,709.502582421875,323.9414,710.088482421875,323.4375L709.607982421875,322.6719C709.201782421875,323.043,708.674382421875,323.3398,708.072882421875,323.3398C706.873682421875,323.3398,706.057282421875,322.3125,706.057282421875,320.7656C706.057282421875,319.2148,706.920482421875,318.17578,708.107982421875,318.17578C708.611882421875,318.17578,709.033782421875,318.41016,709.404882421875,318.75781L709.959582421875,318.01953C709.502582421875,317.61328,708.912682421875,317.25,708.061182421875,317.25C706.381482421875,317.25,704.928282421875,318.52344,704.928282421875,320.7656C704.928282421875,322.9922,706.248682421875,324.25,707.979082421875,324.25Z" fill="#525252" fill-opacity="1"/></g></g></g></g></svg>